<svg width="32" height="32" viewBox="0 0 32 32" fill="none" xmlns="http://www.w3.org/2000/svg">
<path d="M19.2143 22.6499C18.1284 23.1542 16.9231 23.4824 15.654 23.4824C10.8747 23.4824 7.00026 18.8276 7.00026 17.6449C7.00026 16.9745 8.24512 15.1885 10.194 13.767M23.2693 19.5157C23.9317 18.7189 24.3078 18.0134 24.3078 17.6449C24.3078 16.4621 20.4333 11.8074 15.654 11.8074C17.7569 11.8074 19.4616 13.4985 19.4616 15.5846M15.654 19.3618C13.5511 19.3618 11.8463 17.6707 11.8463 15.5846M25.0001 11.8075C22.3643 9.62606 19.287 8.37366 16.0002 8.37366C14.8155 8.37366 13.658 8.53636 12.5387 8.84662M7.00026 11.8075C7.24458 11.6053 7.4927 11.4111 7.74443 11.2251M7.00003 7.00006L23.7141 23.8749" stroke="black" stroke-linecap="round"/>
</svg>
