<svg width="32" height="32" viewBox="0 0 32 32" fill="none" xmlns="http://www.w3.org/2000/svg">
<path d="M8.50002 11.6154L8.15109 11.2573L8.00003 11.4045L8.00002 11.6154L8.50002 11.6154ZM13.75 6.5V6H13.5467L13.4011 6.14189L13.75 6.5ZM23.5 9.42308H23H23.5ZM23.5 22.5769H24H23.5ZM8.5 22.5769L9 22.5769L8.5 22.5769ZM14.5 12.3462V12.8462H15V12.3462H14.5ZM8.50002 12.3462L8.00002 12.3462V12.3462L8.50002 12.3462ZM8.50002 11.6154L8.84896 11.9735L14.0989 6.85811L13.75 6.5L13.4011 6.14189L8.15109 11.2573L8.50002 11.6154ZM11.5 25.5V26H20.5V25.5V25H11.5V25.5ZM23.5 9.42308H23L23 22.5769H23.5H24L24 9.42308H23.5ZM11.5 25.5V25C10.107 25 9 23.903 9 22.5769L8.5 22.5769L8 22.5769C8 24.4796 9.57932 26 11.5 26V25.5ZM20.5 25.5V26C22.4207 26 24 24.4796 24 22.5769H23.5H23C23 23.903 21.893 25 20.5 25V25.5ZM20.5 6.5V7C21.893 7 23 8.09701 23 9.42308H23.5H24C24 7.5204 22.4207 6 20.5 6V6.5ZM13.75 6.5V7H14.5V6.5V6H13.75V6.5ZM14.5 6.5V7H20.5V6.5V6H14.5V6.5ZM8.50002 11.6154L8.00002 11.6154L8.00002 12.3462L8.50002 12.3462L9.00002 12.3462L9.00002 11.6154L8.50002 11.6154ZM8.50002 12.3462L8.00002 12.3462L8 22.5769L8.5 22.5769L9 22.5769L9.00002 12.3462L8.50002 12.3462ZM14.5 6.5H14V12.3462H14.5H15V6.5H14.5ZM14.5 12.3462V11.8462H8.50002V12.3462V12.8462H14.5V12.3462Z" fill="black"/>
</svg>
