<svg width="32" height="32" viewBox="0 0 32 32" fill="none" xmlns="http://www.w3.org/2000/svg">
<path d="M15.9961 4.5C17.775 4.50001 19.3993 4.6782 20.6572 4.87695L21.1729 4.96289C22.2681 5.1549 23.146 5.86802 23.4971 6.87598L23.5605 7.08105C24.0024 8.73506 24.5049 11.4484 24.5 15.2217L24.4922 15.9902C24.409 20.3243 23.739 23.3745 23.1318 25.2773L23.0117 25.6426C22.8807 26.0273 22.5988 26.2289 22.2842 26.2783C21.9995 26.3229 21.666 26.2439 21.3799 26.0107L21.2607 25.9014C20.4656 25.0854 19.4801 24.1236 18.5586 23.3623C18.0986 22.9823 17.6431 22.6425 17.2275 22.3955C16.8325 22.1608 16.3962 21.962 15.9961 21.9619C15.6021 21.9619 15.1471 22.1564 14.7227 22.3887C14.2751 22.6336 13.7725 22.9715 13.2568 23.3516C12.482 23.9226 11.6538 24.6072 10.9023 25.2578L10.1807 25.8926C9.83769 26.1983 9.42627 26.275 9.09375 26.1885C8.8106 26.1147 8.56469 25.9189 8.44434 25.5908L8.40039 25.4424C7.97091 23.5389 7.5 20.4398 7.5 16C7.5 12.1811 7.89179 9.47631 8.28516 7.72266L8.45215 7.0293C8.71603 6.01363 9.51716 5.27161 10.5547 5.0166L10.7656 4.97266C12.0821 4.73947 13.9353 4.5 15.9961 4.5Z" stroke="black" stroke-linecap="round" stroke-linejoin="round"/>
</svg>
