<svg width="32" height="32" viewBox="0 0 32 32" fill="none" xmlns="http://www.w3.org/2000/svg">
<path d="M17.4375 17.9543C10.3678 17.6426 8.09026 20.822 6.03018 24.7183L6.02853 24.7205C5.93629 24.8749 5.78236 24.9677 5.56677 24.9988C5.50369 25.0037 5.44038 24.993 5.38228 24.9677C5.25109 24.9253 5.14041 24.8344 5.07217 24.7132C5.00393 24.592 4.98312 24.4492 5.01386 24.3131C5.07535 24.0637 5.1061 23.7208 5.1676 23.2845L5.17457 23.2297C5.61069 19.8047 6.60918 11.9633 17.4051 10.8162C17.4359 10.785 17.4666 10.785 17.4666 10.7538V7.67017C17.4666 7.4208 17.6204 7.20261 17.8356 7.07793C18.0508 6.98441 18.3583 6.95324 18.5735 7.1091C18.5735 7.1091 26.7179 13.6331 26.7848 13.6839C26.8516 13.7347 26.9058 13.8006 26.9432 13.8763C26.9806 13.9521 27 14.0356 27 14.1203C27 14.205 26.9806 14.2885 26.9432 14.3642C26.9058 14.44 26.8516 14.5059 26.7848 14.5567L18.5752 21.6012C18.498 21.6937 18.3938 21.7587 18.2776 21.7867C18.1614 21.8148 18.0394 21.8044 17.9295 21.7571C17.6527 21.6324 17.4683 21.3207 17.4683 21.0713V17.9854L17.4375 17.9543Z" stroke="black" stroke-linecap="round" stroke-linejoin="round"/>
</svg>
