<svg width="32" height="32" viewBox="0 0 32 32" fill="none" xmlns="http://www.w3.org/2000/svg">
<path d="M16.4835 10.2791L19.2175 7.54511C20.6547 6.10785 22.985 6.10785 24.4222 7.54511C25.8595 8.98237 25.8595 11.3126 24.4222 12.7499C23.7069 13.6953 23.1991 14.1276 22.293 14.8792M15.5237 21.7139L12.7827 24.4549C11.3455 25.8921 9.01521 25.8921 7.57795 24.4549C6.14068 23.0176 6.14068 20.6874 7.57795 19.2501L10.1803 16.6477M14.3748 17.2517L17.3384 14.2881M11.0132 12.3662L8.22188 11.9636M12.7828 10.8901L12.6214 8.07194M19.4631 20.565L20.0569 23.3219M20.814 18.6979L23.6365 18.665" stroke="black" stroke-linecap="round" stroke-linejoin="round"/>
</svg>
