<svg width="32" height="32" viewBox="0 0 32 32" fill="none" xmlns="http://www.w3.org/2000/svg">
<path d="M17.6215 20.688L17.6208 20.6887C17.3125 21.0327 16.8671 21.2296 16.2133 21.2296C15.609 21.2296 15.155 21.0351 14.8049 20.6633C14.4709 20.276 14.2752 19.7169 14.2752 18.9257C14.2752 18.1084 14.4677 17.5514 14.7839 17.1844C15.1118 16.822 15.5675 16.6219 16.2133 16.6219C16.9293 16.6219 17.3807 16.8246 17.6646 17.151C17.96 17.4908 18.1514 18.0524 18.1514 18.9257C18.1514 19.7604 17.9504 20.3225 17.6215 20.688ZM10.625 23.4547L10.625 23.4548L10.6292 23.4593C11.9949 24.9314 13.879 25.6429 16.2133 25.6429C18.5073 25.6429 20.3711 25.0598 21.7401 23.833C23.1167 22.5994 23.7838 20.9009 23.7838 18.8038C23.7838 16.7967 23.2375 15.192 22.0684 14.0777C20.9046 12.9685 19.2505 12.4524 17.1885 12.4524C16.1768 12.4524 15.2567 12.6119 14.4373 12.9405C14.6293 12.3147 14.9174 11.8462 15.2834 11.5107C15.8011 11.0361 16.5372 10.7705 17.5543 10.7705C18.3059 10.7705 19.1028 10.8701 19.9465 11.0731C20.4116 11.1887 20.8591 11.1049 21.2432 10.8168L21.2432 10.8168L21.2469 10.814C21.6369 10.5158 21.8577 10.1053 21.8577 9.61223V8.73451C21.8577 8.22191 21.7016 7.75607 21.3884 7.35707C21.0702 6.93498 20.6421 6.66988 20.1233 6.58341L20.1233 6.58339L20.1191 6.58273C19.1681 6.43257 18.2318 6.35718 17.3104 6.35718C14.5733 6.35718 12.4042 7.26471 10.8782 9.12345C9.35972 10.9567 8.64282 13.6434 8.64282 17.0972C8.64282 19.8167 9.27636 21.9641 10.625 23.4547Z" stroke="black"/>
</svg>
