<svg width="32" height="32" viewBox="0 0 32 32" fill="none" xmlns="http://www.w3.org/2000/svg">
<path d="M17.3108 6.35718C18.0016 6.35719 18.7009 6.39961 19.4084 6.48413L20.1194 6.58276L20.1233 6.58374L20.3147 6.62476C20.7499 6.73982 21.1132 6.9905 21.3918 7.36206H21.3909C21.7018 7.76002 21.8576 8.22351 21.8577 8.73413V9.61206C21.8577 10.0435 21.6886 10.4119 21.385 10.697L21.2473 10.8142L21.2434 10.8171C20.8598 11.1048 20.4129 11.188 19.9485 11.073V11.074C19.1041 10.8707 18.3061 10.7703 17.554 10.7703C16.5372 10.7703 15.8011 11.0361 15.2834 11.5105C14.9177 11.8458 14.6316 12.3149 14.4397 12.9402C15.2586 12.6122 16.1779 12.4529 17.1887 12.4529C19.2506 12.4529 20.9049 12.9687 22.0686 14.0779L22.2805 14.2927C23.3036 15.3944 23.7834 16.9221 23.7834 18.8035C23.7834 20.7697 23.1973 22.3857 21.9895 23.5964L21.7405 23.8328C20.3714 25.0596 18.5072 25.6433 16.2131 25.6433C13.879 25.6433 11.9948 24.9317 10.6292 23.4597L10.6252 23.4548C9.27663 21.9643 8.64286 19.8168 8.64282 17.0974C8.64282 13.6431 9.36017 10.9561 10.8792 9.1228C12.4051 7.26464 14.5741 6.35718 17.3108 6.35718ZM16.2131 16.6218C15.5674 16.6219 15.1114 16.8218 14.7834 17.1843C14.4673 17.5513 14.2757 18.1085 14.2756 18.9255C14.2756 19.7172 14.4714 20.2765 14.8059 20.6638C15.1558 21.0351 15.6093 21.2292 16.2131 21.2292C16.8666 21.2292 17.312 21.0328 17.6204 20.6892L17.6213 20.6882L17.7385 20.5417C17.9974 20.1779 18.1516 19.656 18.1516 18.9255C18.1516 18.0523 17.9597 17.4909 17.6643 17.1511C17.3805 16.8247 16.9291 16.6218 16.2131 16.6218Z" stroke="black"/>
</svg>
