<svg width="24" height="24" viewBox="0 0 24 24" fill="none" xmlns="http://www.w3.org/2000/svg">
<path d="M2.5 17.25C2.5 18.2165 3.21146 19 4.08909 19L7.05491 19M13.0056 5L4.08909 5C3.21146 5 2.5 5.7835 2.5 6.75L2.5 7.58823C2.5 7.78658 2.66267 7.94335 2.85662 7.9849C3.55933 8.13545 4.08333 8.7213 4.08333 9.42105C4.08333 10.1208 3.55933 10.7067 2.85662 10.8572C2.66267 10.8988 2.5 11.0555 2.5 11.2539L2.5 12.7461C2.5 12.9445 2.66267 13.1012 2.85662 13.1428C3.55933 13.2933 4.08333 13.8792 4.08333 14.5789C4.08333 15.2787 3.55933 15.8645 2.85662 16.0151C2.66267 16.0567 2.5 16.2134 2.5 16.4118L2.5 17.1579" stroke="black" stroke-opacity="0.12" stroke-linecap="round"/>
<path d="M21.5 17.25C21.5 18.2165 20.7885 19 19.9109 19L7.49743 19M13.7697 5L19.9109 5C20.7885 5 21.5 5.7835 21.5 6.75L21.5 7.58823C21.5 7.78658 21.3373 7.94335 21.1434 7.9849C20.4407 8.13545 19.9167 8.7213 19.9167 9.42105C19.9167 10.1208 20.4407 10.7067 21.1434 10.8572C21.3373 10.8988 21.5 11.0555 21.5 11.2539L21.5 12.7461C21.5 12.9445 21.3373 13.1012 21.1434 13.1428C20.4407 13.2933 19.9167 13.8792 19.9167 14.5789C19.9167 15.2787 20.4407 15.8645 21.1434 16.0151C21.3373 16.0567 21.5 16.2134 21.5 16.4118L21.5 17.1579M15.3646 18.4474L15.3646 17.3421M15.3646 15.5L15.3646 14.3947M15.3646 12.5526L15.3646 11.4474M15.3646 9.60526L15.3646 8.5M15.3646 6.6579L15.3646 5.55263" stroke="black" stroke-linecap="round"/>
<path d="M14.8943 1.44995L6.07303 21.9206" stroke="black" stroke-linecap="round"/>
</svg>
