<svg width="32" height="32" viewBox="0 0 32 32" fill="none" xmlns="http://www.w3.org/2000/svg">
<path d="M19.3467 6.35718C19.8699 6.35718 20.3302 6.55652 20.7031 6.92944L20.834 7.073C21.1222 7.41797 21.2754 7.82695 21.2754 8.28491V17.5037H21.8525C22.3756 17.5038 22.8352 17.7031 23.208 18.0759L23.3389 18.2205C23.6268 18.5653 23.7802 18.9737 23.7803 19.4314V20.4587C23.7803 20.9167 23.627 21.3257 23.3389 21.6707L23.208 21.8142C22.8352 22.187 22.3756 22.3864 21.8525 22.3865H21.2754V23.7156C21.2753 24.1732 21.1219 24.5817 20.834 24.9265L20.7031 25.071C20.3302 25.444 19.8699 25.6433 19.3467 25.6433H17.4434C16.9854 25.6433 16.5764 25.4901 16.2314 25.2019L16.0879 25.071C15.7151 24.6982 15.5157 24.2386 15.5156 23.7156V22.3865H9.42773C8.96987 22.3865 8.56074 22.2341 8.21582 21.946L8.07227 21.8142C7.69936 21.4413 7.5 20.982 7.5 20.4587V19.4314C7.50007 18.3908 7.80854 17.4308 8.41699 16.5642L8.4209 16.5593L14.7832 7.71753L14.9072 7.55444C15.5426 6.76225 16.4013 6.3572 17.4434 6.35718H19.3467ZM13.1855 17.5037H15.5156V14.1365L13.1855 17.5037Z" stroke="black"/>
</svg>
