<svg width="32" height="32" viewBox="0 0 32 32" fill="none" xmlns="http://www.w3.org/2000/svg">
<path d="M16.011 8.49357V9.76147M11.6479 9.70476L12.2593 10.8003M8.45508 13.0095L9.51352 13.6423M7.28488 17.5254H8.50986M8.45508 22.039L9.51352 21.4062M23.5668 22.039L22.5062 21.4062M24.7348 17.5254H23.5099M23.5668 13.0095L22.5062 13.6423M20.3718 9.70476L19.7604 10.8003M19.4076 14.0075L17.2118 16.2802M17.2118 16.2802C17.8759 16.9675 17.8772 18.0823 17.2131 18.7696C16.549 19.457 15.4723 19.457 14.8082 18.7696C14.1441 18.0823 14.1441 16.9678 14.8082 16.2805C15.4723 15.5931 16.5477 15.5928 17.2118 16.2802ZM21.7699 29L18.9693 24.1235H13.0504L10.2498 29M19.9861 25.8949H24.8751C26.4428 24.1158 27.477 21.9034 27.8519 19.5269C28.2268 17.1505 27.9263 14.7125 26.9868 12.5096C26.0474 10.3068 24.5095 8.43408 22.5605 7.11942C20.6114 5.80475 18.3352 5.10482 16.0088 5.10482C13.6824 5.10482 11.4061 5.80475 9.45705 7.11942C7.50799 8.43408 5.97016 10.3068 5.03071 12.5096C4.09126 14.7125 3.79071 17.1505 4.16563 19.5269C4.54055 21.9034 5.57477 24.1158 7.14244 25.8949H12.0336M26.1045 29C28.3408 26.8903 29.9084 24.1298 30.6013 21.0811C31.2943 18.0325 31.0803 14.8382 29.9873 11.9177C28.8944 8.99726 26.9736 6.48721 24.4773 4.71721C21.981 2.9472 19.0259 2 16 2C12.9741 2 10.019 2.9472 7.52268 4.71721C5.02638 6.48721 3.10563 8.99726 2.01268 11.9177C0.919733 14.8382 0.705689 18.0325 1.39866 21.0811C2.09163 24.1298 3.65922 26.8903 5.89555 29H26.1045Z" stroke="black" stroke-miterlimit="10" stroke-linecap="round"/>
</svg>
