<svg width="32" height="32" viewBox="0 0 32 32" fill="none" xmlns="http://www.w3.org/2000/svg">
<path d="M25.9612 14.9754C25.9612 16.452 25.4725 18.4002 24.5027 19.2274C22.4546 18.6476 15.232 19.9155 13.4632 20.4644C9.43679 17.5498 8.84719 12.3392 11.0349 9.29317C12.8037 8.43504 16.5896 7.028 22.602 8.50461M15.5578 26C16.7991 24.7476 17.9628 22.8844 18.6222 19.5292M19.8634 25.1187C20.5849 24.0904 21.415 22.6834 21.0349 19.189M11.1591 24.7706C11.7797 24.5386 12.7727 24.3995 13.4322 20.4567M24.3709 19.2198C24.3709 19.2198 24.7122 20.333 24.3398 21.4849M12.3616 23.9202C10.1971 22.4668 4.37863 16.4598 8.78514 9.06903M25.426 12.5403C23.4632 10.9323 17.1017 9.07684 9.87902 13.9087M25.8836 14.7358C23.0597 14.4962 17.1094 14.8363 10.3367 16.2434M13.4632 6.3709C14.3942 6.61056 15.2553 7.05896 15.8061 7.94802M17.0396 6.05392C17.6602 6.52551 18.211 7.21356 18.2808 7.76246M11.0194 9.28562C11.0194 9.28562 10.422 8.52799 9.20403 8.59757M26 15.9652C26 21.4688 21.5228 25.9304 16 25.9304C10.4772 25.9304 6 21.4688 6 15.9652C6 10.4616 10.4772 6 16 6C21.5228 6 26 10.4616 26 15.9652Z" stroke="black" stroke-miterlimit="10"/>
</svg>
