<svg width="32" height="32" viewBox="0 0 32 32" fill="none" xmlns="http://www.w3.org/2000/svg">
<path d="M6.90843 13.3919L8.9428 15.5122C9.21077 15.8143 9.54679 16.0002 9.9482 16.0429L13.8285 16.4555M18.7237 14.7992L25.5325 8.08419C26.0879 7.53719 26.9903 7.55808 27.5498 8.13248C28.112 8.73398 28.0975 9.66568 27.5185 10.2424L21.624 16.0194C21.1891 16.4451 21.0405 17.089 21.2039 17.6749L24.5598 27.293M16.3736 27.2665L14.4558 20.6902C14.2635 20.0798 13.7435 19.6383 13.1269 19.562L8.95013 19.0963C8.57495 19.051 8.2416 18.8922 8.00251 18.6147L4.37957 15.0689C3.96449 14.6171 3.90067 13.9667 4.11243 13.4261M4.88885 4.28921C6.69444 4.19594 8.24068 5.63224 8.34249 7.49729C8.44429 9.36234 7.0631 10.9499 5.25751 11.0431C3.45192 11.1364 1.90567 9.7001 1.80387 7.83506C1.70206 5.97001 3.08326 4.38248 4.88885 4.28921ZM18.0951 10.0945C18.2941 12.1225 16.8643 13.9227 14.9015 14.1153C12.9387 14.3079 11.1862 12.82 10.9872 10.792C10.7882 8.76402 12.218 6.96385 14.1808 6.77123C16.1436 6.57862 17.8961 8.0665 18.0951 10.0945Z" stroke="black" stroke-miterlimit="10" stroke-linecap="round"/>
</svg>
