<svg width="32" height="32" viewBox="0 0 32 32" fill="none" xmlns="http://www.w3.org/2000/svg">
<path d="M14.5191 19.3795L15.1047 19.2608C15.4884 19.1988 15.5544 18.6895 15.2074 18.4693L14.9005 18.2748C14.2455 17.8596 13.6869 17.3009 13.2722 16.6465L13.0777 16.3396C12.858 15.9926 12.3487 16.0586 12.2862 16.4423L11.7029 19.824" stroke="black" stroke-linecap="round" stroke-linejoin="round"/>
<path d="M6.64465 23.7312L7.6071 25.7255" stroke="black" stroke-linecap="round" stroke-linejoin="round"/>
<path d="M7.78918 22.5586L8.7654 24.5672" stroke="black" stroke-linecap="round" stroke-linejoin="round"/>
<path d="M5.52576 24.8501L6.4882 26.8444" stroke="black" stroke-linecap="round" stroke-linejoin="round"/>
<path d="M4.22755 25.9438L3.0678 27.0295C2.85041 27.1993 2.83091 27.5217 3.02593 27.7167L4.17478 28.8655C4.3698 29.0605 4.69214 29.041 4.86192 28.8237L10.2558 22.9291C11.8113 21.3736 17.3588 21.7573 20.7056 20.8132C23.8608 19.923 28.228 17.2026 28.8331 13.4279C29.4772 9.40951 27.5454 7.47831 25.9503 5.88264C24.3552 4.28754 22.4946 2.42689 18.405 2.99988C14.6195 3.52986 11.9105 7.97215 11.0198 11.1273C10.0757 14.4741 10.4594 20.0217 8.90386 21.5772" stroke="black" stroke-linecap="round" stroke-linejoin="round"/>
<path d="M16.232 8.73654C16.5013 8.73654 16.7196 8.51827 16.7196 8.24901C16.7196 7.97975 16.5013 7.76147 16.232 7.76147C15.9628 7.76147 15.7445 7.97975 15.7445 8.24901C15.7445 8.51827 15.9628 8.73654 16.232 8.73654Z" fill="black"/>
<path d="M18.0672 10.5722C18.3365 10.5722 18.5548 10.354 18.5548 10.0847C18.5548 9.81544 18.3365 9.59717 18.0672 9.59717C17.798 9.59717 17.5797 9.81544 17.5797 10.0847C17.5797 10.354 17.798 10.5722 18.0672 10.5722Z" fill="black"/>
<path d="M19.9026 12.4074C20.1718 12.4074 20.3901 12.1892 20.3901 11.9199C20.3901 11.6506 20.1718 11.4324 19.9026 11.4324C19.6333 11.4324 19.415 11.6506 19.415 11.9199C19.415 12.1892 19.6333 12.4074 19.9026 12.4074Z" fill="black"/>
<path d="M21.7379 14.2431C22.0072 14.2431 22.2254 14.0249 22.2254 13.7556C22.2254 13.4863 22.0072 13.2681 21.7379 13.2681C21.4686 13.2681 21.2504 13.4863 21.2504 13.7556C21.2504 14.0249 21.4686 14.2431 21.7379 14.2431Z" fill="black"/>
<path d="M23.5161 16.0786C23.7854 16.0786 24.0036 15.8603 24.0036 15.591C24.0036 15.3218 23.7854 15.1035 23.5161 15.1035C23.2468 15.1035 23.0286 15.3218 23.0286 15.591C23.0286 15.8603 23.2468 16.0786 23.5161 16.0786Z" fill="black"/>
<path d="M18.0101 6.95871C18.2794 6.95871 18.4976 6.74043 18.4976 6.47118C18.4976 6.20192 18.2794 5.98364 18.0101 5.98364C17.7409 5.98364 17.5226 6.20192 17.5226 6.47118C17.5226 6.74043 17.7409 6.95871 18.0101 6.95871Z" fill="black"/>
<path d="M19.8454 8.79391C20.1147 8.79391 20.333 8.57564 20.333 8.30638C20.333 8.03712 20.1147 7.81885 19.8454 7.81885C19.5762 7.81885 19.3579 8.03712 19.3579 8.30638C19.3579 8.57564 19.5762 8.79391 19.8454 8.79391Z" fill="black"/>
<path d="M21.6808 10.6296C21.95 10.6296 22.1683 10.4113 22.1683 10.1421C22.1683 9.87282 21.95 9.65454 21.6808 9.65454C21.4115 9.65454 21.1932 9.87282 21.1932 10.1421C21.1932 10.4113 21.4115 10.6296 21.6808 10.6296Z" fill="black"/>
<path d="M23.5161 12.4651C23.7854 12.4651 24.0036 12.2468 24.0036 11.9775C24.0036 11.7083 23.7854 11.49 23.5161 11.49C23.2468 11.49 23.0286 11.7083 23.0286 11.9775C23.0286 12.2468 23.2468 12.4651 23.5161 12.4651Z" fill="black"/>
<path d="M25.3514 14.2431C25.6207 14.2431 25.839 14.0249 25.839 13.7556C25.839 13.4863 25.6207 13.2681 25.3514 13.2681C25.0822 13.2681 24.8639 13.4863 24.8639 13.7556C24.8639 14.0249 25.0822 14.2431 25.3514 14.2431Z" fill="black"/>
<path d="M21.6236 7.01633C21.8929 7.01633 22.1112 6.79805 22.1112 6.52879C22.1112 6.25954 21.8929 6.04126 21.6236 6.04126C21.3544 6.04126 21.1361 6.25954 21.1361 6.52879C21.1361 6.79805 21.3544 7.01633 21.6236 7.01633Z" fill="black"/>
<path d="M23.459 8.85153C23.7282 8.85153 23.9465 8.63326 23.9465 8.364C23.9465 8.09474 23.7282 7.87646 23.459 7.87646C23.1897 7.87646 22.9714 8.09474 22.9714 8.364C22.9714 8.63326 23.1897 8.85153 23.459 8.85153Z" fill="black"/>
<path d="M25.2942 10.6296C25.5634 10.6296 25.7817 10.4113 25.7817 10.1421C25.7817 9.87282 25.5634 9.65454 25.2942 9.65454C25.0249 9.65454 24.8066 9.87282 24.8066 10.1421C24.8066 10.4113 25.0249 10.6296 25.2942 10.6296Z" fill="black"/>
<path d="M16.2892 12.3503C16.5584 12.3503 16.7767 12.132 16.7767 11.8628C16.7767 11.5935 16.5584 11.3752 16.2892 11.3752C16.0199 11.3752 15.8016 11.5935 15.8016 11.8628C15.8016 12.132 16.0199 12.3503 16.2892 12.3503Z" fill="black"/>
<path d="M18.1244 14.1855C18.3936 14.1855 18.6119 13.9672 18.6119 13.698C18.6119 13.4287 18.3936 13.2104 18.1244 13.2104C17.8551 13.2104 17.6368 13.4287 17.6368 13.698C17.6368 13.9672 17.8551 14.1855 18.1244 14.1855Z" fill="black"/>
<path d="M19.9026 16.021C20.1718 16.021 20.3901 15.8027 20.3901 15.5334C20.3901 15.2642 20.1718 15.0459 19.9026 15.0459C19.6333 15.0459 19.415 15.2642 19.415 15.5334C19.415 15.8027 19.6333 16.021 19.9026 16.021Z" fill="black"/>
<path d="M14.511 14.1855C14.7802 14.1855 14.9985 13.9672 14.9985 13.698C14.9985 13.4287 14.7802 13.2104 14.511 13.2104C14.2417 13.2104 14.0234 13.4287 14.0234 13.698C14.0234 13.9672 14.2417 14.1855 14.511 14.1855Z" fill="black"/>
<path d="M16.2892 15.9638C16.5584 15.9638 16.7767 15.7456 16.7767 15.4763C16.7767 15.207 16.5584 14.9888 16.2892 14.9888C16.0199 14.9888 15.8016 15.207 15.8016 15.4763C15.8016 15.7456 16.0199 15.9638 16.2892 15.9638Z" fill="black"/>
<path d="M18.1244 17.799C18.3936 17.799 18.6119 17.5808 18.6119 17.3115C18.6119 17.0423 18.3936 16.824 18.1244 16.824C17.8551 16.824 17.6368 17.0423 17.6368 17.3115C17.6368 17.5808 17.8551 17.799 18.1244 17.799Z" fill="black"/>
</svg>
