<svg width="32" height="32" viewBox="0 0 32 32" fill="none" xmlns="http://www.w3.org/2000/svg">
<path d="M5.99838 24.0104C4.01026 21.8344 2.72501 18.9973 2.52662 15.836C2.33549 12.7904 3.1829 9.91894 4.76582 7.56275M28.7538 19.4082C29.3266 17.774 29.5886 16.0019 29.4734 14.1666C29.163 9.22109 26.1928 5.06918 22.0329 3M11.6672 11.1694V21.5619C11.6672 23.3756 10.8668 25.098 9.47741 26.2742C8.37489 27.2076 9.03923 29 10.4877 29H25.6727C26.2906 29 26.8769 28.7286 27.2745 28.2585L28.3356 27.0038C29.4794 25.6514 28.5117 23.5877 26.7338 23.5877H19.5851C18.4296 23.5877 17.4928 22.657 17.4928 21.5089V3.42891H11.1274C9.57765 3.42891 8.76457 5.25674 9.80777 6.39538C11.0042 7.7012 11.6672 9.40352 11.6672 11.1694Z" stroke="black" stroke-miterlimit="10" stroke-linecap="round"/>
</svg>
