<svg width="32" height="32" viewBox="0 0 32 32" fill="none" xmlns="http://www.w3.org/2000/svg">
<path d="M16 1C23.3031 1 29 4.21209 29 10.8129C29 19.1803 28.0986 31 15.9566 31C3.81467 31 3 19.271 3 10.8137C3 4.2121 8.6969 1 16 1ZM23.8806 5.53929C23.2048 7.04703 22.1548 8.43235 20.7511 9.44691C20.7193 9.46981 20.6856 9.48302 20.6451 9.4883C19.4833 9.63362 18.3736 10.0907 17.5233 10.834C17.4915 10.8613 17.4577 10.878 17.4153 10.8851C16.9496 10.9696 16.4753 11.0128 16.001 11.0128C15.5266 11.0128 15.0532 10.9696 14.5876 10.8851C14.5452 10.8771 14.5105 10.8613 14.4786 10.834C13.6273 10.0916 12.5167 9.63362 11.3549 9.4883C11.3144 9.48302 11.2807 9.46981 11.2489 9.44691C9.84515 8.43235 8.79524 7.04615 8.1194 5.53929C6.95572 7.0893 6.33581 8.92906 6.33581 10.8137V10.974C6.33581 11.0251 6.31749 11.0683 6.28085 11.1061C5.5597 11.8494 5.14031 12.7777 5.14031 13.7764C5.14031 16.385 7.83113 18.1155 10.5229 18.1155C10.7263 18.1155 10.9288 18.1058 11.1313 18.0882C11.2171 18.0803 11.2952 18.1164 11.3395 18.1833C11.3839 18.2512 11.3829 18.3304 11.3357 18.3965C10.871 19.0447 10.6164 19.7862 10.6164 20.5638C10.6164 21.2983 10.844 22.0038 11.2633 22.6282C11.2952 22.6757 11.3038 22.7268 11.2894 22.7814C11.2749 22.8351 11.2402 22.8774 11.1872 22.9056C10.3995 23.3248 9.55303 24.0144 9.55303 24.9171C9.55303 25.8911 10.5316 26.6151 11.3887 27.0316C12.7529 27.6948 14.4661 27.9572 15.9981 27.9572C17.53 27.9572 19.2433 27.6948 20.6075 27.0316C21.4646 26.6151 22.4431 25.8902 22.4431 24.9171C22.4431 24.0144 21.5966 23.3248 20.809 22.9056C20.7559 22.8774 20.7222 22.836 20.7068 22.7814C20.6923 22.7277 20.701 22.6757 20.7328 22.6282C21.1531 22.0038 21.3797 21.2983 21.3797 20.5638C21.3797 19.7871 21.1252 19.0447 20.6605 18.3965C20.6132 18.3304 20.6113 18.2512 20.6566 18.1833C20.701 18.1164 20.78 18.0803 20.8658 18.0882C21.0683 18.1067 21.2708 18.1155 21.4742 18.1155C24.166 18.1155 26.8568 16.385 26.8568 13.7764C26.8568 12.7777 26.4374 11.8494 25.7163 11.1061C25.6796 11.0683 25.6613 11.0242 25.6613 10.974V10.8146C25.6613 8.93082 25.0414 7.09019 23.8777 5.54017L23.8806 5.53929ZM16 24.2169C16.5785 24.2169 19.8333 24.2698 19.8333 25.1276C19.8333 25.9854 16.5785 26.0382 16 26.0382C15.4215 26.0382 12.1667 25.9854 12.1667 25.1276C12.1667 24.2698 15.4215 24.2169 16 24.2169ZM10.9288 11.9578C11.7165 11.9578 12.5649 12.0969 13.2687 12.4307C13.8076 12.6861 14.3417 13.1035 14.4459 13.6795C14.4574 13.7429 14.4632 13.8081 14.4632 13.8724C14.4632 13.9367 14.4574 14.0018 14.4459 14.0652C14.3427 14.6412 13.8076 15.0587 13.2687 15.3141C12.5649 15.6478 11.7165 15.787 10.9288 15.787C10.1411 15.787 9.29272 15.6478 8.58892 15.3141C8.04999 15.0587 7.51491 14.6412 7.41175 14.0652C7.40018 14.0018 7.39439 13.9367 7.39439 13.8724C7.39439 13.8081 7.40018 13.7429 7.41175 13.6795C7.51491 13.1035 8.04999 12.6861 8.58892 12.4307C9.29272 12.0969 10.1411 11.9578 10.9288 11.9578ZM21.0702 11.9578C21.8579 11.9578 22.7063 12.0969 23.4101 12.4307C23.949 12.6861 24.4832 13.1035 24.5873 13.6795C24.5989 13.7429 24.6046 13.8081 24.6046 13.8724C24.6046 13.9367 24.5989 14.0018 24.5873 14.0652C24.4841 14.6412 23.949 15.0587 23.4101 15.3141C22.7063 15.6478 21.8579 15.787 21.0702 15.787C20.2826 15.787 19.4341 15.6478 18.7303 15.3141C18.1914 15.0587 17.6563 14.6412 17.5532 14.0652C17.5416 14.0018 17.5358 13.9367 17.5358 13.8724C17.5358 13.8081 17.5416 13.7429 17.5532 13.6795C17.6563 13.1035 18.1914 12.6861 18.7303 12.4307C19.4341 12.0969 20.2826 11.9578 21.0702 11.9578ZM13.6601 19.898L15.1304 18.0213C15.3357 17.7588 15.6452 17.6135 15.999 17.6135C16.3529 17.6135 16.6623 17.7588 16.8677 18.0213L18.338 19.898C18.5751 20.201 18.606 20.5815 18.4199 20.9126C18.2329 21.2446 17.8781 21.4419 17.4703 21.4419H14.5288C14.121 21.4419 13.7652 21.2437 13.5791 20.9126C13.3921 20.5815 13.4229 20.201 13.6601 19.898Z" stroke="black" stroke-miterlimit="10" stroke-linecap="round"/>
</svg>
