<svg width="32" height="32" viewBox="0 0 32 32" fill="none" xmlns="http://www.w3.org/2000/svg">
<path d="M28.8009 11.0364V19.4596C28.8009 20.0652 28.4479 20.6225 27.8783 20.9142L14.767 27.6329C14.1787 27.9352 13.4571 27.9017 12.9031 27.5479L4.60075 22.2445C4.11618 21.9348 3.8269 21.4225 3.8269 20.875V12.3447C3.8269 12.8921 4.11618 13.4044 4.60075 13.7141L12.9031 19.0174C13.4571 19.3713 14.1787 19.4048 14.767 19.1024L27.8783 12.3837C28.4479 12.092 28.8009 11.5347 28.8009 10.9292M3.8269 18.9213C3.8269 19.4688 4.11618 19.7418 4.60075 20.0515L12.9031 25.3548C13.4571 25.7087 14.1787 25.7422 14.767 25.4398L27.8783 18.7211C28.4479 18.4294 28.8009 17.8721 28.8009 17.2666M11.6998 13.5516L20.4891 9.0474M28.8017 10.5757C28.8017 10.0282 28.5124 9.51584 28.0278 9.20614L19.7255 3.9036C19.1715 3.54977 18.4499 3.51627 17.8616 3.81862L4.74948 10.5365C4.17992 10.8282 3.8269 11.3855 3.8269 11.991M13.9024 19.4371V27.746M22.0107 11.3645L18.2853 13.208L13.1012 9.96962L16.8267 8.12693L22.0107 11.3645Z" stroke="black" stroke-linecap="round" stroke-linejoin="round"/>
</svg>
