<svg width="32" height="32" viewBox="0 0 32 32" fill="none" xmlns="http://www.w3.org/2000/svg">
<path d="M11.7479 5.03651C13.2286 4.37035 14.869 4 16.5952 4C23.1701 4 28.5 9.37258 28.5 16C28.5 22.6274 23.1701 28 16.5952 28C10.0204 28 4.69048 22.6274 4.69048 16C4.69048 14.6904 4.89859 13.4298 5.2833 12.25M13.1401 8.85859C13.1401 6.17526 10.9821 4 8.32003 4C5.658 4 3.5 6.17526 3.5 8.85859C3.5 11.5419 5.658 13.7172 8.32003 13.7172C10.9821 13.7172 13.1401 11.5419 13.1401 8.85859Z" stroke="black" stroke-miterlimit="10"/>
</svg>
