<svg width="32" height="32" viewBox="0 0 32 32" fill="none" xmlns="http://www.w3.org/2000/svg">
<path d="M10.7499 23.468C10.7499 24.9492 9.57469 26.15 8.12496 26.15C6.67524 26.15 5.5 24.9492 5.5 23.468C5.5 21.9867 6.67524 20.7859 8.12496 20.7859C9.57469 20.7859 10.7499 21.9867 10.7499 23.468ZM10.7499 23.468C10.7499 24.9492 11.9255 26.15 13.3752 26.15C14.8249 26.15 16.0002 24.9492 16.0002 23.468M10.7499 23.468C10.7499 21.9867 11.9255 20.7859 13.3752 20.7859C14.8249 20.7859 16.0002 21.9867 16.0002 23.468M13.3751 18.7349C13.3751 20.2162 12.1998 21.417 10.7501 21.417C9.30037 21.417 8.12513 20.2162 8.12513 18.7349C8.12513 17.2537 9.30037 16.0529 10.7501 16.0529C12.1998 16.0529 13.3751 17.2537 13.3751 18.7349ZM13.3751 18.7349C13.3751 20.2162 14.5503 21.417 16 21.417C17.4497 21.417 18.625 20.2162 18.625 18.7349M13.3751 18.7349C13.3751 17.2537 14.5503 16.0529 16 16.0529C17.4497 16.0529 18.625 17.2537 18.625 18.7349M18.625 18.7349C18.625 20.2162 19.8002 21.417 21.2499 21.417C22.6996 21.417 23.8749 20.2162 23.8749 18.7349C23.8749 17.2537 22.6996 16.0529 21.2499 16.0529C19.8002 16.0529 18.625 17.2537 18.625 18.7349ZM16.0002 14.0335C16.0002 15.5147 14.8249 16.7155 13.3752 16.7155C11.9255 16.7155 10.7503 15.5147 10.7503 14.0335C10.7503 12.5522 11.9255 11.3514 13.3752 11.3514C14.8249 11.3514 16.0002 12.5522 16.0002 14.0335ZM16.0002 14.0335C16.0002 15.5147 17.1754 16.7155 18.6251 16.7155C20.0749 16.7155 21.2501 15.5147 21.2501 14.0335C21.2501 12.5522 20.0749 11.3514 18.6251 11.3514C17.1754 11.3514 16.0002 12.5522 16.0002 14.0335ZM16.0002 23.468C16.0002 24.9492 17.1754 26.15 18.6251 26.15C20.0749 26.15 21.2501 24.9492 21.2501 23.468M16.0002 23.468C16.0002 21.9867 17.1754 20.7859 18.6251 20.7859C20.0749 20.7859 21.2501 21.9867 21.2501 23.468M21.2501 23.468C21.2501 24.9492 22.4253 26.15 23.875 26.15C25.3248 26.15 26.5 24.9492 26.5 23.468C26.5 21.9867 25.3248 20.7859 23.875 20.7859C22.4253 20.7859 21.2501 21.9867 21.2501 23.468ZM18.625 9.33204C18.625 10.8133 17.4497 12.0141 16 12.0141C14.5503 12.0141 13.375 10.8133 13.375 9.33204C13.375 7.85079 14.5503 6.65 16 6.65C17.4497 6.65 18.625 7.85079 18.625 9.33204ZM4.74857 29H27.2377C28.587 29 29.8239 28.2914 30.4986 27.0981C31.1733 25.9047 31.1733 24.5249 30.4611 23.3688L18.8792 3.64088C18.2795 2.59669 17.1925 2 15.9931 2C14.7937 2 13.7067 2.59669 13.107 3.64088L1.52514 23.3688C0.850463 24.5249 0.812981 25.942 1.48765 27.1354C2.16233 28.2914 3.39923 29 4.74857 29Z" stroke="black" stroke-miterlimit="10" stroke-linecap="round"/>
</svg>
