<svg width="32" height="32" viewBox="0 0 32 32" fill="none" xmlns="http://www.w3.org/2000/svg">
<path d="M20.6602 11.7665C20.9243 13.1108 21.0835 14.5299 21.0835 16C21.0835 24.2862 16 31 16 31C16 31 12.866 26.8608 11.5184 21.0708M11.0951 18.7476C10.9786 17.8593 10.9165 16.9395 10.9165 16.0039C10.9165 7.71777 16 1 16 1C16 1 18.6718 4.5338 20.1437 9.63207M13.0757 16.6525C13.0485 16.4403 13.033 16.2241 13.033 16C13.033 13.8381 14.3612 12.0849 15.9961 12.0849C16.4505 12.0849 16.8816 12.2186 17.266 12.4623M18.5398 13.9796C18.8117 14.5692 18.967 15.261 18.967 16C18.967 18.1619 17.6388 19.9151 16.0039 19.9151C15.1884 19.9151 14.4505 19.4788 13.9146 18.7752M26.9864 5.34748L5.06796 27.4269M23.9806 9.54953L22.7884 8.33884L23.8796 5.3239L26.9359 2.24214L28.7495 3.4489L30 5.35928L26.8777 8.50786L23.9806 9.54953ZM8.0233 23.2759L9.21165 24.4866L8.12039 27.5055L5.06408 30.5833L3.25049 29.3805L2 27.4662L5.12233 24.3215L8.0233 23.2759Z" stroke="black" stroke-miterlimit="10" stroke-linecap="round"/>
</svg>
