<svg width="32" height="32" viewBox="0 0 32 32" fill="none" xmlns="http://www.w3.org/2000/svg">
<path d="M15.6185 19.0512C15.6185 19.0512 15.664 19.0745 15.7323 19.1444C17.1432 20.309 17.9624 22.1025 17.9624 23.9658V30.3711C17.9624 30.7205 18.2355 31 18.5768 31H20.989C21.3303 31 21.6034 30.7205 21.6034 30.3711V23.9425C21.6034 22.0792 22.4226 20.309 23.8335 19.1211C23.9018 19.0745 23.9473 19.028 23.9473 19.028M15.6185 19.0512C15.6185 19.0512 13.0241 18.4457 11.9546 15.2081C11.727 14.5559 11.636 13.8804 11.5905 13.205C11.4539 10.3401 11.5905 1 19.7827 1C27.975 1 28.1115 10.3401 27.975 13.205C27.9295 13.8804 27.8157 14.5559 27.6109 15.2081C26.5413 18.4457 23.9471 19.0512 23.9471 19.0512L15.6185 19.0512ZM8.53092 22.7948C10.5109 23.2733 11.7369 25.3041 11.2694 27.3306C10.8019 29.3572 8.81782 30.6121 6.83789 30.1336C4.85796 29.655 3.6319 27.6243 4.09942 25.5978C4.56694 23.5712 6.55099 22.3163 8.53092 22.7948Z" stroke="black" stroke-miterlimit="10" stroke-linecap="round"/>
</svg>
