<svg width="32" height="32" viewBox="0 0 32 32" fill="none" xmlns="http://www.w3.org/2000/svg">
<path d="M22.8127 6.02593C24.0958 6.1986 25.3339 6.90048 26.1173 7.91489C26.8161 8.82052 27.0893 9.99464 26.9747 11.1161C26.7289 13.5187 25.311 15.5432 23.9037 17.4451C21.868 20.1957 18.7034 22.0157 17.482 25.229C17.4846 25.3611 17.1665 26.1105 16.7109 25.9861C16.5312 25.9939 16.1575 25.2739 16.1046 25.1763C15.9839 24.9545 15.8447 24.743 15.694 24.5409C15.0492 23.6456 14.3726 23.0335 14.1148 22.8393C13.4002 22.1582 12.6564 21.5072 11.9127 20.8571C10.2912 19.4413 9.56175 18.9085 8.09892 17.332C6.83172 15.9663 5.56364 14.401 5.12567 12.5656C4.66127 10.6188 5.51958 8.59778 7.11283 7.37617C8.86118 6.03457 11.1947 6.13212 13.1307 7.02308C14.3935 7.60496 15.725 9.38845 16.4996 10.5937C16.6776 10.3001 16.8856 10.0239 17.0945 9.76832C18.426 8.14267 20.563 5.72291 22.8127 6.02593Z" stroke="black"/>
</svg>
