<svg width="32" height="32" viewBox="0 0 32 32" fill="none" xmlns="http://www.w3.org/2000/svg">
<path d="M11.395 3.15403C12.3747 4.49513 12.6937 6.27834 12.217 7.86027C11.7107 9.61179 10.3435 11.0254 9.67795 12.7261C9.05293 14.2888 9.03348 16.0657 9.63546 17.6444C10.2161 19.2127 11.1519 20.4274 12.8972 21.2722C14.6212 22.1067 16.1544 22.087 17.766 21.5797C19.3563 21.0622 20.7592 19.9549 21.5971 18.4952C22.518 16.9181 22.7785 14.9688 23.8381 13.4852C24.8044 12.1402 26.4009 11.2842 28.0392 11.2102M27.6486 21.3802C24.4011 28.0897 16.3293 30.8962 9.61977 27.6486C2.91026 24.4011 0.103794 16.3293 3.35136 9.61977C6.59892 2.91026 14.6707 0.103794 21.3802 3.35136C28.0897 6.59892 30.8962 14.6707 27.6486 21.3802Z" stroke="black" stroke-miterlimit="10" stroke-linecap="round"/>
</svg>
