<svg width="32" height="32" viewBox="0 0 32 32" fill="none" xmlns="http://www.w3.org/2000/svg">
<path d="M1.64258 11.4155L5.29725 8.52943C6.29235 7.8665 8.73708 6.48511 10.5552 6.26303C11.1881 6.18573 12.2744 5.97356 14.402 6.66294L17.858 7.7434C18.1178 7.85701 18.9223 8.06633 20.0626 7.99471C21.4878 7.9052 22.231 7.46254 26.5564 8.17275L28.035 8.3793L30.2781 7.90798C30.4792 7.87932 30.7913 7.84756 30.9407 7.99471C30.9764 8.06211 31.1508 8.3953 30.657 8.86143C29.8176 9.6539 26.7278 11.8229 22.4058 14.7645C19.3085 16.5505 17.0351 17.4309 11.7667 19.0387M14.8015 6.76683L10.5544 8.11305C10.3263 8.18077 9.80986 8.42115 9.56924 8.84087L9.15637 10.1608C9.05476 10.4856 9.34322 10.7957 9.65073 10.6921L18.0604 7.86123M1.99956 18.1709L12.322 13.3053C15.8963 11.7859 17.5545 11.1724 21.9211 9.9361L28.0737 8.35904M29.4547 18.7126C25.9828 22.5763 23.469 18.7126 23.469 18.7126H23.433C19.9611 22.5763 17.4473 18.7126 17.4473 18.7126H17.4114C13.9394 22.5763 11.4257 18.7126 11.4257 18.7126H11.3897C7.91682 22.5763 5.40306 18.7126 5.40306 18.7126H5.36614C4.08833 20.135 2.94025 20.5101 1.99956 20.4162M8.32139 23.4537H8.35737C8.35737 23.4537 10.8711 27.3174 14.3431 23.4537H14.379C14.379 23.4537 16.8928 27.3174 20.3647 23.4537H20.4007C20.4007 23.4537 22.9145 27.3174 26.3864 23.4537" stroke="black" stroke-miterlimit="10" stroke-linecap="round"/>
</svg>
