<svg width="32" height="32" viewBox="0 0 32 32" fill="none" xmlns="http://www.w3.org/2000/svg">
<path d="M11.0676 3.66608C12.7852 2.91664 14.6881 2.5 16.6905 2.5C24.3173 2.5 30.5 8.54416 30.5 16C30.5 23.4558 24.3173 29.5 16.6905 29.5C9.06369 29.5 2.88095 23.4558 2.88095 16C2.88095 14.5267 3.12237 13.1086 3.56863 11.7813M12.6825 7.96591C12.6825 4.94717 10.1792 2.5 7.09123 2.5C4.00328 2.5 1.5 4.94717 1.5 7.96591C1.5 10.9846 4.00328 13.4318 7.09123 13.4318C10.1792 13.4318 12.6825 10.9846 12.6825 7.96591Z" stroke="black" stroke-miterlimit="10" stroke-linecap="round"/>
</svg>
