<svg width="32" height="32" viewBox="0 0 32 32" fill="none" xmlns="http://www.w3.org/2000/svg">
<path d="M8 12.9375C7.72386 12.9375 7.5 13.1614 7.5 13.4375C7.5 13.7137 7.72386 13.9375 8 13.9375V12.9375ZM11.604 13.9099L12.0343 14.1645L11.604 13.9099ZM8.27952 19.5276L8.70982 19.7823L8.70982 19.7823L8.27952 19.5276ZM11.8835 20.5C12.1596 20.5 12.3835 20.2761 12.3835 20C12.3835 19.7238 12.1596 19.5 11.8835 19.5V20.5ZM24.5 10C24.5 9.72386 24.2761 9.5 24 9.5C23.7239 9.5 23.5 9.72386 23.5 10H24.5ZM14.2135 12.9375C13.9374 12.9375 13.7135 13.1614 13.7135 13.4375C13.7135 13.7137 13.9374 13.9375 14.2135 13.9375V12.9375ZM18.2524 13.9375C18.5285 13.9375 18.7524 13.7137 18.7524 13.4375C18.7524 13.1614 18.5285 12.9375 18.2524 12.9375V13.9375ZM14.2135 16.2188C13.9374 16.2188 13.7135 16.4426 13.7135 16.7188C13.7135 16.9949 13.9374 17.2188 14.2135 17.2188V16.2188ZM18.2524 17.2188C18.5285 17.2188 18.7524 16.9949 18.7524 16.7188C18.7524 16.4426 18.5285 16.2188 18.2524 16.2188V17.2188ZM14.2135 19.5C13.9374 19.5 13.7135 19.7239 13.7135 20C13.7135 20.2761 13.9374 20.5 14.2135 20.5V19.5ZM18.2524 20.5C18.5285 20.5 18.7524 20.2761 18.7524 20C18.7524 19.7239 18.5285 19.5 18.2524 19.5V20.5ZM8 13.9375H11.337V12.9375H8V13.9375ZM11.1737 13.6552L7.84922 19.273L8.70982 19.7823L12.0343 14.1645L11.1737 13.6552ZM8.54648 20.5H11.8835V19.5H8.54648V20.5ZM7.84922 19.273C7.5313 19.8102 7.9131 20.5 8.54648 20.5V19.5C8.69786 19.5 8.78119 19.6617 8.70982 19.7823L7.84922 19.273ZM11.337 13.9375C11.1856 13.9375 11.1023 13.7758 11.1737 13.6552L12.0343 14.1645C12.3522 13.6273 11.9704 12.9375 11.337 12.9375V13.9375ZM23.5 10V19.3749H24.5V10H23.5ZM23.3786 19.4999H20.8932V20.4999H23.3786V19.4999ZM20.7718 19.3749V14.0625H19.7718V19.3749H20.7718ZM20.8932 13.9375H23.8447V12.9375H20.8932V13.9375ZM20.7718 14.0625C20.7718 13.9907 20.8289 13.9375 20.8932 13.9375V12.9375C20.2711 12.9375 19.7718 13.4439 19.7718 14.0625H20.7718ZM20.8932 19.4999C20.8289 19.4999 20.7718 19.4467 20.7718 19.3749H19.7718C19.7718 19.9935 20.2711 20.4999 20.8932 20.4999V19.4999ZM23.5 19.3749C23.5 19.4467 23.4429 19.4999 23.3786 19.4999V20.4999C24.0007 20.4999 24.5 19.9935 24.5 19.3749H23.5ZM14.2135 13.9375H18.2524V12.9375H14.2135V13.9375ZM14.2135 17.2188H18.2524V16.2188H14.2135V17.2188ZM14.2135 20.5H18.2524V19.5H14.2135V20.5Z" fill="black"/>
<rect x="4" y="4" width="24" height="24" rx="4" stroke="black"/>
</svg>
