<svg width="32" height="32" viewBox="0 0 32 32" fill="none" xmlns="http://www.w3.org/2000/svg">
<path d="M23.7306 28H8.48677C4.63134 28 1.5 24.9568 1.5 21.2099C1.5 17.463 4.63134 14.4198 8.48677 14.4198H23.7306C27.586 14.4198 30.7174 17.463 30.7174 21.2099C30.7174 24.9568 27.586 28 23.7306 28Z" stroke="black" stroke-miterlimit="10"/>
<path d="M22.6064 7.33951C21.9331 5.33951 20.0276 4 17.8681 4H12.2152C10.9957 4 9.99845 4.96296 9.99845 6.15432C9.99845 7.34568 10.9957 8.30864 12.2152 8.30864H17.4806C17.938 8.30864 18.7192 8.39506 18.7764 9.37037C18.8335 10.3457 17.9443 10.4012 17.4806 10.4012H10.8305C8.84246 10.4012 7.22915 11.4938 7.22915 13.4259V14.4198H24.7532L22.6064 7.33951Z" stroke="black" stroke-miterlimit="10"/>
</svg>
