<svg width="32" height="32" viewBox="0 0 32 32" fill="none" xmlns="http://www.w3.org/2000/svg">
<path d="M20.1496 16.3098L20.9118 14.9995C21.1588 14.5748 21.2748 14.0867 21.2452 13.5965L21.2027 12.894C21.1732 12.405 21.2885 11.9182 21.5342 11.4942L23.2631 8.51163M16.7463 4.73971C18.397 4.73971 19.6191 4.92433 21.1018 4.08776L23.3682 2.60939C23.9778 2.21175 24.6902 2 25.4183 2H25.5766L25.6256 2.99292C25.6389 3.26221 25.7399 3.51947 25.9095 3.72927C27.4798 5.67177 28.791 7.75945 29.9324 9.98383C30.0427 10.1988 30.0161 10.4581 29.8666 10.648L29.3613 11.2895C29.1773 11.5232 28.8706 11.6233 28.5839 11.5433C28.4219 11.4981 28.2815 11.3978 28.1778 11.2655C27.9737 11.0052 27.7486 10.7629 27.5052 10.5388L27.3489 10.4119C26.9145 10.1753 26.428 10.0599 25.9357 10.083C25.7677 10.0946 25.594 10.083 25.426 10.0657C23.9027 9.86955 22.8255 8.47334 23.0224 6.95597M28.1536 7.04252L25.4141 10.0715M13.8915 7.53488H15.8857C16.2343 7.53488 16.5792 7.60774 16.898 7.74876L22.113 10.0557M12.1455 10.3731H13.8193M20.6769 15.4156C20.7795 15.3623 24.6898 16.5447 26.4808 17.0908C27.0053 17.2507 27.3606 17.7335 27.3606 18.281V21.1315C27.3606 21.5535 27.1468 21.947 26.7924 22.1771L24.0998 23.9255M21.3951 18.2657L25.0106 19.0215C25.3 19.082 25.5073 19.3368 25.5073 19.632V20.1871C25.5073 20.4147 25.383 20.6242 25.1832 20.7338L23.0226 21.9178M15.7768 16.8753C16.0826 17.1705 16.4266 17.4276 16.8057 17.6344C16.9792 17.729 17.1378 17.8505 17.2597 18.0059L20.723 22.4197L22.8884 26.5327C22.9766 26.7002 23.1017 26.8454 23.2544 26.9575L23.851 27.3952C24.0143 27.515 24.146 27.6727 24.2346 27.8547L24.7917 28.998C24.8963 29.2126 25.1144 29.3488 25.3534 29.3488H26.8226C27.1676 29.3488 27.4473 29.0696 27.4473 28.7252V28.277C27.4473 28.1135 27.383 27.9565 27.2681 27.8399L25.3912 25.9333L22.4432 21.4908L19.3793 15.0579M11.8653 13.0698H3.77347M15.6969 23.1628C15.6969 26.9389 12.6308 30 8.84847 30C5.06616 30 2 26.9389 2 23.1628C2 19.3867 5.06616 16.3256 8.84847 16.3256C12.6308 16.3256 15.6969 19.3867 15.6969 23.1628Z" stroke="black" stroke-miterlimit="10" stroke-linecap="round"/>
</svg>
