<svg width="32" height="32" viewBox="0 0 32 32" fill="none" xmlns="http://www.w3.org/2000/svg">
<path d="M3.56745 28C3.56745 28 20.9394 28 31.1818 28M10.7208 9.87781C10.7208 9.87781 9.39454 12.8644 9.1925 14.7599C9.1925 14.7599 11.0382 17.2293 12.7395 18.6939L17.8989 17.5738C17.8989 17.5738 19.1675 15.3627 19.373 12.6472M10.7208 9.87781C13.5182 8.84413 15.9387 8.72927 15.9387 8.72927M10.7208 9.87781C9.20247 8.33679 7.24147 7.70509 7.24147 7.70509M19.373 12.6472C19.373 12.6472 18.0151 10.1649 15.9387 8.72927M19.373 12.6472L22.8463 11.7586M15.9387 8.72927L17.353 5.57038M22.8463 11.7586C22.8463 11.7586 22.832 9.01641 21.866 7.48014C21.866 7.48014 21.0422 6.17358 17.353 5.57038M22.8463 11.7586C22.8463 11.7586 24.4305 13.1187 24.812 15.899C24.812 15.899 24.1006 20.9914 19.6791 21.6416M17.353 5.57038C16.1035 3.51209 13.7389 3.01856 13.7389 3.01856M9.42142 3.53109C9.42142 3.53109 7.72229 5.52245 7.24147 7.70509M7.24147 7.70509C7.24147 7.70509 4.41811 9.18437 3.57223 11.1161C3.57223 11.1161 3.43523 13.1654 4.62709 15.4978L9.1925 14.7578M4.62709 15.5C4.62709 15.5 3.33897 17.775 3.70446 19.8234C3.70446 19.8234 4.81915 22.7526 7.08626 23.8437M7.08626 23.8437C7.08626 23.8437 9.23933 23.978 11.5849 23.0972M7.08626 23.8437C7.08626 23.8437 6.74071 24.9413 6.96399 26.4344M11.5849 23.0972C11.5849 23.0972 12.2578 19.7086 12.7382 18.693M11.5849 23.0972C11.5849 23.0972 14.2387 24.8394 15.777 24.9538M1.42609 10.7789C1.42609 10.7789 2.20043 10.7107 3.56745 10.883M1.27651 19.8376L3.63943 19.6757M15.777 24.9538C15.777 24.9538 18.7951 23.652 19.6791 21.6416M15.777 24.9538C15.777 24.9538 15.8347 26.8791 15.6326 27.7353M19.6791 21.6416C19.6791 21.6416 18.6988 18.6744 17.9015 17.5734M22.6759 20.1749C22.6759 20.1749 23.3262 21.2712 22.9629 23.1701M25.6033 15.5C25.6033 22.4036 19.9837 28 13.0517 28C6.11957 28 0.5 22.4036 0.5 15.5C0.5 8.59644 6.11957 3 13.0517 3C19.9837 3 25.6033 8.59644 25.6033 15.5Z" stroke="black" stroke-miterlimit="10" stroke-linecap="round"/>
</svg>
