<svg width="32" height="32" viewBox="0 0 32 32" fill="none" xmlns="http://www.w3.org/2000/svg">
<path d="M20.6022 4.62261C17.8576 3.37161 14.6679 3.04867 11.5584 3.9468C4.55076 5.97086 0.505322 13.3209 2.51566 20.3764C4.526 27.4318 11.8263 31.5049 18.8339 29.4808C25.8416 27.4568 29.887 20.1067 27.8767 13.0512C27.6787 12.3564 27.4379 11.7011 27.1427 11.0789M18.9748 7.98694C17.0276 7.12709 14.7783 6.91417 12.5845 7.54781C7.55337 9.00098 4.64895 14.278 6.09227 19.3434C7.53559 24.4089 12.7768 27.3331 17.808 25.8799C22.8391 24.4268 25.7435 19.1498 24.3002 14.0843C24.1853 13.6812 24.0504 13.2967 23.891 12.9282M20.7306 15.0892C21.6091 18.1727 19.8412 21.3849 16.7786 22.2695C13.7161 23.154 10.5256 21.374 9.64706 18.2906C8.76848 15.2071 10.5365 11.9949 13.599 11.1103C14.6128 10.8175 15.6389 10.8227 16.5935 11.0694M15.1957 16.7138L23.4051 8.61023M23.6969 8.31L27.8138 8.21859C27.9977 8.2145 28.1727 8.13773 28.3009 8.00485L30.9601 5.21288C31.0479 5.12187 30.9811 4.96948 30.8551 4.97351L28.1654 4.09145C28.0347 4.09563 27.9233 3.99694 27.9107 3.86591L26.5522 1.12774C26.5407 1.00819 26.3956 0.956798 26.3124 1.04279L23.8052 3.664C23.6738 3.79964 23.6021 3.98275 23.6063 4.17215L23.6969 8.31Z" stroke="black" stroke-miterlimit="10" stroke-linecap="round"/>
</svg>
