<svg width="32" height="32" viewBox="0 0 32 32" fill="none" xmlns="http://www.w3.org/2000/svg">
<path d="M16.4839 28.6973C17.8797 28.5433 19.0728 27.7355 19.7488 26.5917C20.5026 27.8657 21.897 28.7239 23.4982 28.7239C25.0995 28.7239 26.4953 27.8657 27.2477 26.5917C28.0016 27.8657 29.3959 28.7239 30.9972 28.7239M1 28.7239C2.60125 28.7239 3.99702 27.8657 4.74947 26.5917C5.50333 27.8657 6.89769 28.7239 8.49894 28.7239C9.00057 28.7239 9.48094 28.6399 9.92872 28.4859M27.4546 20.0217L20.6245 11.2789C19.2415 9.5094 16.8353 8.86821 14.7395 9.71099L3.72637 14.1405C3.06178 14.4107 2.73445 15.1638 3.01644 15.8372C3.29276 16.4924 4.07496 16.7822 4.7438 16.5246L14.065 12.9323L17.7493 17.3842H16.5732C14.5383 17.3842 12.5857 18.1836 11.1474 19.6045L10.7265 20.0203M5.12357 16.477L11.5427 25.5614M11.5427 25.5614L10.9745 27.7635L12.0373 29.2643C12.5885 30.044 13.6754 30.2344 14.4646 29.6884C15.2539 29.1439 15.4466 28.0701 14.894 27.2903L13.8312 25.7896L11.5427 25.5614ZM6.49242 21.2817H1M31 21.2817H8.64064M16.1963 5.06732C16.1963 6.76135 14.8062 8.13463 13.0915 8.13463C11.3769 8.13463 9.98682 6.76135 9.98682 5.06732C9.98682 3.37328 11.3769 2 13.0915 2C14.8062 2 16.1963 3.37328 16.1963 5.06732Z" stroke="black" stroke-miterlimit="10" stroke-linecap="round"/>
</svg>
