<svg width="32" height="32" viewBox="0 0 32 32" fill="none" xmlns="http://www.w3.org/2000/svg">
<path d="M18.7568 5.00039H13.2432M8.52202 12.2357L9.37694 15.9433M23.478 12.2357L22.6234 15.9433M19.5143 12.2357H24.4766C24.7436 12.2357 24.9595 12.0179 24.9595 11.7487V10.2346C24.9595 9.96622 24.7436 9.74769 24.4766 9.74769H17.6438M12.4857 9.74769H7.52339C7.25644 9.74769 7.04049 9.96622 7.04049 10.2346V11.7487C7.04049 12.0179 7.25644 12.2357 7.52339 12.2357H12.4857M14.3562 9.74769H11.6037M16.9055 9.42749V5H15.0945V9.42749M12.4833 15.484C12.2867 14.9652 12.228 14.4245 12.228 13.9625C12.228 11.3467 13.8849 9.29738 16 9.29738C18.1151 9.29738 19.772 11.3467 19.772 13.9625C19.772 14.4245 19.7133 14.9652 19.5167 15.484M17.1848 15.484C17.6565 15.3002 17.9613 14.8865 17.9613 13.9625C17.9613 12.3946 17.0829 11.1232 16 11.1232C14.9171 11.1232 14.0387 12.3946 14.0387 13.9625C14.0387 14.8865 14.3438 15.3002 14.8152 15.484M6.73452 16.9615L10.359 15.5647C10.4969 15.5117 10.6429 15.484 10.7901 15.484H21.2099C21.3571 15.484 21.5031 15.5117 21.641 15.5647L25.2655 16.9615M25.2655 24.0278V24.7827C25.2655 25.4546 25.8059 26 26.4727 26H29.7928C30.4599 26 31 25.4546 31 24.7827V15.8962C31 15.2238 30.4599 14.6789 29.7928 14.6789H26.4727C25.8059 14.6789 25.2655 15.2238 25.2655 15.8962V20.7958M6.73452 24.0278V24.7827C6.73452 25.4546 6.19406 26 5.52727 26H2.20725C1.54007 26 1 25.4546 1 24.7827V15.8962C1 15.2238 1.54007 14.6789 2.20725 14.6789H5.52727C6.19406 14.6789 6.73452 15.2238 6.73452 15.8962V20.7958M20.9986 20.7958H18.5737M18.2159 25.0012L28.7026 23.5529C29.002 23.5116 29.2249 23.2541 29.2249 22.9499V19.5785C29.2249 19.2419 28.9544 18.97 28.621 18.97H27.4331C27.1847 18.97 26.961 19.1239 26.8706 19.3576L26.4662 20.4074C26.3758 20.6419 26.1525 20.7958 25.9037 20.7958H19.0906M13.426 20.7958H6.09632C5.84753 20.7958 5.62424 20.6419 5.53384 20.4074L5.12937 19.3576C5.03897 19.1239 4.81529 18.97 4.56688 18.97H3.37895C3.04556 18.97 2.77514 19.2419 2.77514 19.5785V22.9499C2.77514 23.2541 2.99804 23.5116 3.29744 23.5529L13.7841 25.0012M16 25.9864C14.0379 25.9864 12.6031 24.1189 13.0933 22.2032L13.3062 21.3711C13.7114 19.7876 13.5129 18.1087 12.7499 16.6659L12.1252 15.4844H19.8748L19.2501 16.6659C18.4871 18.1087 18.2886 19.7876 18.6938 21.3711L18.9067 22.2032C19.3969 24.1189 17.9625 25.9864 16 25.9864Z" stroke="black" stroke-miterlimit="10" stroke-linecap="round"/>
</svg>
