<svg width="32" height="32" viewBox="0 0 32 32" fill="none" xmlns="http://www.w3.org/2000/svg">
<path d="M30.8961 10.3864V20.4698C30.8961 21.1947 30.4735 21.8618 29.7917 22.211L14.0963 30.2539C13.392 30.6158 12.5282 30.5757 11.865 30.1522L1.92637 23.8036C1.34629 23.4328 1 22.8195 1 22.1641V11.9525C1 12.6079 1.34629 13.2211 1.92637 13.5919L11.865 19.9404C12.5282 20.364 13.392 20.4041 14.0963 20.0422L29.7917 11.9993C30.4735 11.6501 30.8961 10.983 30.8961 10.2581M1 19.8254C1 20.4808 1.34629 20.8076 1.92637 21.1783L11.865 27.5269C12.5282 27.9505 13.392 27.9906 14.0963 27.6286L29.7917 19.5858C30.4735 19.2366 30.8961 18.5694 30.8961 17.8446M10.4245 13.3973L20.9462 8.00543M30.8971 9.83493C30.8971 9.17953 30.5508 8.56619 29.9707 8.19545L20.0321 1.84783C19.3689 1.42426 18.5051 1.38416 17.8008 1.7461L2.1044 9.78798C1.42259 10.1372 1 10.8043 1 11.5292M13.0613 20.4429V30.3893M22.7677 10.7792L18.308 12.9861L12.1022 9.10941L16.5619 6.90354L22.7677 10.7792Z" stroke="black" stroke-miterlimit="10" stroke-linecap="round"/>
</svg>
