<svg width="32" height="32" viewBox="0 0 32 32" fill="none" xmlns="http://www.w3.org/2000/svg">
<path d="M4 4H25.6C26.9255 4 28 5.08318 28 6.41935V18.5161C28 19.8523 26.9255 20.9355 25.6 20.9355H4M16 12.4677C16 13.8039 14.9255 14.8871 13.6 14.8871C12.2745 14.8871 11.2 13.8039 11.2 12.4677C11.2 11.1316 12.2745 10.0484 13.6 10.0484C14.9255 10.0484 16 11.1316 16 12.4677ZM8.8 12.4677C8.8 13.8039 7.72548 14.8871 6.4 14.8871C5.07452 14.8871 4 13.8039 4 12.4677C4 11.1316 5.07452 10.0484 6.4 10.0484C7.72548 10.0484 8.8 11.1316 8.8 12.4677ZM23.2 12.4677C23.2 13.8039 22.1255 14.8871 20.8 14.8871C19.4745 14.8871 18.4 13.8039 18.4 12.4677C18.4 11.1316 19.4745 10.0484 20.8 10.0484C22.1255 10.0484 23.2 11.1316 23.2 12.4677ZM20 20.9355H23V27.9919C23 28.5487 22.5523 29 22 29H21C20.4477 29 20 28.5487 20 27.9919V20.9355Z" stroke="black" stroke-miterlimit="10" stroke-linecap="round"/>
</svg>
