<svg width="32" height="32" viewBox="0 0 32 32" fill="none" xmlns="http://www.w3.org/2000/svg">
<path d="M9.98789 13.2785L9.83262 12.8032L9.83153 12.8036L9.98789 13.2785ZM23.7931 14.0733L23.9273 14.555L24.2322 14.47L24.2859 14.1581L23.7931 14.0733ZM4.73806 18.6475C4.48389 18.7555 4.36537 19.049 4.47333 19.3032C4.58129 19.5574 4.87485 19.6759 5.12901 19.5679L4.73806 18.6475ZM28.3382 12.7855L28.0589 13.2002L28.3382 12.7855ZM27.813 18.9435L27.8616 19.4411L27.813 18.9435ZM24.8798 15.2047L24.384 15.1405L24.8798 15.2047ZM24.1443 16.0429L24.0162 15.5596L24.1443 16.0429ZM24.9289 8.76858L24.4753 8.97891L24.9289 8.76858ZM8.70825 13.6998L8.86461 14.1747L8.70825 13.6998ZM3.77755 20.3299L3.35705 20.6004L3.77755 20.3299ZM3.80657 19.2052L3.40058 18.9134L3.80657 19.2052ZM26.0965 13.5223L26.3883 13.1163L26.0965 13.5223ZM25.4304 10.9505L25.9263 11.0146L25.4304 10.9505ZM25.1769 9.3034L25.6305 9.09307L25.1769 9.3034ZM4.41556 20.3975L4.19805 20.0594L3.35705 20.6004L3.57456 20.9385L4.41556 20.3975ZM4.21256 19.4971L7.11718 15.4563L6.3052 14.8726L3.40058 18.9134L4.21256 19.4971ZM8.86461 14.1747L10.1443 13.7535L9.83153 12.8036L8.55189 13.2249L8.86461 14.1747ZM9.98789 13.2785C10.1432 13.7538 10.1432 13.7538 10.1433 13.7538C10.1433 13.7538 10.1434 13.7537 10.1436 13.7537C10.1437 13.7536 10.1439 13.7536 10.1441 13.7535C10.1443 13.7535 10.1445 13.7534 10.1447 13.7533C10.1453 13.7531 10.1478 13.7523 10.1495 13.7517C10.1535 13.7504 10.1601 13.7483 10.1682 13.7456C10.1849 13.7402 10.2094 13.7322 10.242 13.7215C10.3069 13.7003 10.4029 13.669 10.5271 13.6284C10.7756 13.5472 11.1369 13.4292 11.5887 13.2816C12.4921 12.9864 13.7569 12.5732 15.2025 12.101C18.0936 11.1565 21.7076 9.97585 24.5992 9.03121L24.2886 8.08065C21.3971 9.02528 17.7831 10.2059 14.892 11.1504C13.4464 11.6227 12.1816 12.0359 11.2781 12.331C10.8264 12.4786 10.4651 12.5966 10.2166 12.6778C10.0924 12.7184 9.99629 12.7498 9.93144 12.771C9.89893 12.7816 9.87431 12.7896 9.85768 12.7951C9.84921 12.7978 9.8433 12.7998 9.83893 12.8012C9.83629 12.8021 9.83581 12.8022 9.83421 12.8027C9.83358 12.8029 9.83339 12.803 9.83302 12.8031C9.83289 12.8032 9.83279 12.8032 9.83272 12.8032C9.83266 12.8032 9.83263 12.8032 9.98789 13.2785ZM24.9345 10.8863L24.384 15.1405L25.3757 15.2688L25.9263 11.0146L24.9345 10.8863ZM24.0162 15.5596L4.96419 20.6103L5.22044 21.5769L24.2725 16.5262L24.0162 15.5596ZM3.53692 20.2352L23.9273 14.555L23.6589 13.5916L3.26856 19.2719L3.53692 20.2352ZM24.2859 14.1581L25.2476 8.5714L24.2621 8.40174L23.3003 13.9885L24.2859 14.1581ZM27.7644 18.4458L26.8247 18.5376L26.9219 19.5329L27.8616 19.4411L27.7644 18.4458ZM26.0591 18.352L22.6 16.1203L22.0579 16.9606L25.517 19.1923L26.0591 18.352ZM24.5649 16.0637L27.8316 18.1685L28.3732 17.3279L25.1065 15.2231L24.5649 16.0637ZM28.0703 13.1527L27.0279 13.2801L27.1493 14.2727L28.1917 14.1453L28.0703 13.1527ZM26.3883 13.1163L25.4503 12.4423L24.8668 13.2544L25.8047 13.9284L26.3883 13.1163ZM25.163 11.2497L28.0589 13.2002L28.6176 12.3708L25.7216 10.4202L25.163 11.2497ZM5.12901 19.5679L19.4019 13.5053L19.0109 12.5849L4.73806 18.6475L5.12901 19.5679ZM19.0822 12.1625L10.0484 12.7569L10.114 13.7547L19.1479 13.1604L19.0822 12.1625ZM23.3607 14.337L24.3358 16.1006L25.211 15.6167L24.2359 13.8531L23.3607 14.337ZM24.4753 8.97891L24.7233 9.51374L25.6305 9.09307L25.3825 8.55824L24.4753 8.97891ZM19.4019 13.5053C20.1275 13.1971 19.8689 12.1108 19.0822 12.1625L19.1479 13.1604C18.8107 13.1826 18.6999 12.717 19.0109 12.5849L19.4019 13.5053ZM28.0589 13.2002C28.0535 13.1965 28.0497 13.191 28.0482 13.1847L29.0197 12.9479C28.9622 12.7121 28.8188 12.5063 28.6176 12.3708L28.0589 13.2002ZM27.8316 18.1685C27.875 18.1964 27.9011 18.2446 27.9008 18.2963L28.9008 18.3015C28.9029 17.9081 28.7039 17.5409 28.3732 17.3279L27.8316 18.1685ZM27.8616 19.4411C28.4489 19.3837 28.8977 18.8916 28.9008 18.3015L27.9008 18.2963C27.9004 18.3737 27.8415 18.4383 27.7644 18.4458L27.8616 19.4411ZM24.384 15.1405C24.3579 15.3419 24.2125 15.5076 24.0162 15.5596L24.2725 16.5262C24.8615 16.3701 25.2975 15.8731 25.3757 15.2688L24.384 15.1405ZM28.1917 14.1453C28.7705 14.0745 29.1578 13.5144 29.0197 12.9479L28.0482 13.1847C28.0445 13.1695 28.0548 13.1545 28.0703 13.1527L28.1917 14.1453ZM24.5992 9.03121C24.5477 9.04802 24.4951 9.02171 24.4753 8.97891L25.3825 8.55824C25.1922 8.14778 24.7253 7.93799 24.2886 8.08065L24.5992 9.03121ZM7.11718 15.4563C7.54941 14.855 8.16122 14.4063 8.86461 14.1747L8.55189 13.2249C7.64754 13.5226 6.86093 14.0996 6.3052 14.8726L7.11718 15.4563ZM4.19805 20.0594C4.08698 19.8868 4.09274 19.6638 4.21256 19.4971L3.40058 18.9134C3.0411 19.4135 3.02384 20.0825 3.35705 20.6004L4.19805 20.0594ZM27.0279 13.2801C26.8017 13.3078 26.5733 13.2493 26.3883 13.1163L25.8047 13.9284C26.1938 14.2079 26.6738 14.3309 27.1493 14.2727L27.0279 13.2801ZM25.9263 11.0146C26.0111 10.359 25.9086 9.69281 25.6305 9.09307L24.7233 9.51374C24.9219 9.94212 24.9952 10.418 24.9345 10.8863L25.9263 11.0146ZM26.8247 18.5376C26.5559 18.5639 26.2861 18.4985 26.0591 18.352L25.517 19.1923C25.9335 19.461 26.4286 19.581 26.9219 19.5329L26.8247 18.5376ZM3.57456 20.9385C3.92663 21.4858 4.59142 21.7437 5.22044 21.5769L4.96419 20.6103C4.75452 20.6659 4.53292 20.58 4.41556 20.3975L3.57456 20.9385Z" fill="black"/>
</svg>
