<svg width="32" height="32" viewBox="0 0 32 32" fill="none" xmlns="http://www.w3.org/2000/svg">
<path d="M24.6565 4.03372C26.3245 4.25818 27.9341 5.17063 28.9525 6.48936C29.8609 7.66667 30.2161 9.19303 30.0672 10.6509C29.7475 13.7744 27.9043 16.4062 26.0748 18.8787C23.4285 22.4544 19.3144 24.8204 17.7266 28.9977C17.73 29.1694 17.3165 30.1436 16.7242 29.982C16.4905 29.9921 16.0048 29.0561 15.936 28.9292C15.7791 28.6408 15.5981 28.3658 15.4022 28.1032C14.5639 26.9392 13.6843 26.1435 13.3493 25.8911C12.4202 25.0056 11.4533 24.1594 10.4865 23.3143C8.37857 21.4737 7.43028 20.781 5.5286 18.7316C3.88124 16.9561 2.23273 14.9214 1.66337 12.5353C1.05965 10.0045 2.17545 7.37711 4.24668 5.78903C6.51953 4.04494 9.55306 4.17176 12.0699 5.33C13.7116 6.08644 15.4425 8.40499 16.4495 9.97175C16.6809 9.59016 16.9513 9.23102 17.2228 8.89881C18.9538 6.78548 21.7318 3.63978 24.6565 4.03372Z" stroke="black" stroke-miterlimit="10" stroke-linecap="round"/>
</svg>
