<svg width="32" height="32" viewBox="0 0 32 32" fill="none" xmlns="http://www.w3.org/2000/svg">
<path d="M10.8333 12.632C10.8333 15.4663 8.52014 17.7639 5.66667 17.7639C2.8132 17.7639 0.5 15.4663 0.5 12.632C0.5 9.79766 2.8132 7.5 5.66667 7.5C8.52014 7.5 10.8333 9.79766 10.8333 12.632ZM10.8333 12.632C10.8333 15.4663 13.1465 17.7639 16 17.7639C18.8535 17.7639 21.1667 15.4663 21.1667 12.632M10.8333 12.632C10.8333 9.79766 13.1465 7.5 16 7.5C18.8535 7.5 21.1667 9.79766 21.1667 12.632M21.1667 12.632C21.1667 15.4663 23.4799 17.7639 26.3333 17.7639C29.1868 17.7639 31.5 15.4663 31.5 12.632C31.5 9.79766 29.1868 7.5 26.3333 7.5C23.4799 7.5 21.1667 9.79766 21.1667 12.632ZM15.3322 19.368C15.3322 22.2023 13.019 24.5 10.1655 24.5C7.31206 24.5 4.99887 22.2023 4.99887 19.368C4.99887 16.5337 7.31206 14.2361 10.1655 14.2361C13.019 14.2361 15.3322 16.5337 15.3322 19.368ZM27.0714 19.368C27.0714 22.2023 24.7582 24.5 21.9048 24.5C19.0513 24.5 16.7381 22.2023 16.7381 19.368C16.7381 16.5337 19.0513 14.2361 21.9048 14.2361C24.7582 14.2361 27.0714 16.5337 27.0714 19.368Z" stroke="black" stroke-miterlimit="10" stroke-linecap="round"/>
</svg>
