<svg width="32" height="32" viewBox="0 0 32 32" fill="none" xmlns="http://www.w3.org/2000/svg">
<path d="M22.7179 12.7471C20.3136 8.3307 15.0614 4.76927 8.28571 5.07141M16 16.283C20.6221 14.7787 25.0836 11.783 26.7164 7.52729M16 16.283C15.0229 20.8473 15.2543 25.9257 17.6136 29.5M16 16.283C12.4064 12.9466 7.64286 10.4972 3.20715 11.1915M15.6528 23.9907C18.54 24.0027 21.3717 23.1986 23.8216 21.6711C26.2716 20.1435 28.24 17.9548 29.5 15.3571M9.64214 12.1428C8.24972 14.6039 7.54378 17.3937 7.59806 20.2207C7.65234 23.0478 8.46485 25.8085 9.95071 28.2142M29.5 16C29.5 23.4558 23.4558 29.4999 16 29.4999C8.54416 29.4999 2.5 23.4558 2.5 16C2.5 8.54414 8.54416 2.5 16 2.5C23.4558 2.5 29.5 8.54414 29.5 16Z" stroke="black" stroke-miterlimit="10"/>
</svg>
