<svg width="32" height="32" viewBox="0 0 32 32" fill="none" xmlns="http://www.w3.org/2000/svg">
<path d="M29.5 16C29.5 23.4558 23.4558 29.5 16 29.5C8.54416 29.5 2.5 23.4558 2.5 16C2.5 8.54416 8.54416 2.5 16 2.5C23.4558 2.5 29.5 8.54416 29.5 16Z" stroke="black" stroke-miterlimit="10"/>
<path d="M26.9688 15.5179C26.9688 19.0461 24.2165 21.9063 20.8214 21.9063C17.4264 21.9063 14.6741 19.0461 14.6741 15.5179C14.6741 11.9896 17.4264 9.12946 20.8214 9.12946C24.2165 9.12946 26.9688 11.9896 26.9688 15.5179Z" stroke="black" stroke-miterlimit="10"/>
<path d="M29.2589 15.5179C29.2589 21.4426 24.8607 26.2455 19.4353 26.2455C14.0098 26.2455 9.61161 21.4426 9.61161 15.5179C9.61161 9.59312 14.0098 4.79018 19.4353 4.79018C24.8607 4.79018 29.2589 9.59312 29.2589 15.5179Z" stroke="black" stroke-miterlimit="10"/>
<path d="M21.183 12.625L21.8325 14.6239H23.9343L22.2339 15.8593L22.8834 17.8582L21.183 16.6228L19.4827 17.8582L20.1321 15.8593L18.4318 14.6239H20.5335L21.183 12.625Z" stroke="black" stroke-miterlimit="10"/>
</svg>
