<svg width="32" height="32" viewBox="0 0 32 32" fill="none" xmlns="http://www.w3.org/2000/svg">
<path d="M8.80694 18.0332C9.89347 16.1166 11.2719 14.3798 12.9106 12.9033C14.5492 11.4269 16.4194 10.2366 18.4378 9.35562M12.0363 11.9316L13.9397 14.047M9.18252 15.1414L11.5557 16.8335M16.7352 11.9539L15.3016 9.41524M3.63154 18.503C5.63507 22.1242 8.42672 25.2267 11.8161 27.5992M19.4398 4.25904C22.8292 6.63147 25.6208 9.73404 27.6244 13.3552M4.75613 27.3635C6.80959 27.8967 11.075 28.5009 16.2503 26.2638C20.3038 24.5054 23.6864 21.4577 25.8576 17.6074C28.6208 12.7131 28.4661 8.405 28.152 6.28333C28.0191 5.40292 27.3847 4.6978 26.5236 4.4735C24.4466 3.96153 20.1812 3.35726 15.0283 5.59554C10.9747 7.35394 7.59218 10.4017 5.4209 14.252C2.65777 19.1462 2.81246 23.4544 3.1265 25.576C3.26057 26.4341 3.89504 27.1392 4.75613 27.3635Z" stroke="black" stroke-miterlimit="10" stroke-linecap="round"/>
</svg>
