<svg width="32" height="32" viewBox="0 0 32 32" fill="none" xmlns="http://www.w3.org/2000/svg">
<path d="M8.69234 15.0767C8.59264 17.5429 4.98549 21.6052 4.98549 21.6052L5.03534 25.8125L5.93102 26.9974H3.04523L3.69198 25.8368L3.76659 22.1131C3.76659 22.1131 2.7963 20.8798 3.76659 20.1061C4.73656 19.3323 4.91087 15.8988 4.91087 15.8988C4.91087 15.8988 3.73336 13.7788 4.57919 11.8285C5.42502 9.87809 7.59107 8.94915 8.94094 8.73347C9.44726 8.65251 9.9096 8.39716 10.2898 8.10948C10.8072 7.71781 11.2161 7.20326 11.5328 6.64199C12.3914 5.12042 13.8044 5.22346 13.8044 5.22346C13.8044 5.22346 15.0859 5.2113 15.6082 6.22696L15.6238 6.25736C15.9819 6.94599 16.5869 7.4983 17.3383 7.74725C18.7282 8.20804 19.4121 9.18082 19.7187 9.79649C19.983 10.3274 20.4587 10.753 21.0513 10.856C21.8747 10.9993 22.4387 10.5219 22.7824 10.056C23.0424 9.70337 23.1962 9.28322 23.2558 8.85155C23.4999 7.08742 24.0785 5.53801 24.0785 5.53801C24.0785 5.53801 23.1193 4.75115 23.724 4.2142C24.3711 3.64013 24.7627 4.40172 24.7627 4.40172C26.6036 3.54349 27.7978 4.70411 27.7978 4.70411C29.5393 4.72843 29.8752 5.81641 29.8752 5.81641C30.5219 7.35174 28.4448 6.92871 28.4448 6.92871L28.4458 6.92807C27.6371 7.83493 26.472 7.95973 26.472 7.95973C26.472 7.95973 26.0406 10.5549 25.0788 12.4892C24.117 14.4236 19.4649 15.4796 19.4649 15.4796C19.3141 17.5224 18.1587 19.8357 17.8492 20.4235C17.7983 20.5201 17.7733 20.6254 17.7739 20.7342L17.798 25.8122L18.8178 26.9971H15.6831L16.4641 25.8122V22.3547C16.1008 21.315 16.4641 20.5652 16.4641 20.5652V15.7778C12.6924 17.3253 8.69234 15.0767 8.69234 15.0767ZM8.69234 15.0767C8.80833 14.0934 8.03711 12.9334 8.03711 12.9334M25.0449 7.40422C25.0449 7.40422 25.476 7.96485 26.471 7.96037M4.31886 12.7532C4.31886 12.7532 3.34498 13.4995 3.0449 16.9634C2.84583 19.2606 2 19.9374 2 19.9374M9.60366 25.7754L10.6306 27H7.7947L8.2603 25.9671L6.60057 22.6766C6.23794 21.8734 6.54681 21.0702 6.65205 20.8392C6.67454 20.7896 6.68692 20.738 6.69115 20.684L6.80356 19.2702V19.2645C7.71716 17.9413 8.64249 16.3106 8.69038 15.0805C8.69038 15.0805 9.62777 15.6085 11.0249 15.9801L8.7979 19.7406C8.42191 20.3675 8.18308 21.0696 8.09348 21.795C8.05764 22.0795 8.09935 22.3636 8.21306 22.6308L9.60366 25.7754ZM20.0103 26.9997L20.3088 26.0074L19.2877 22.7924C18.595 22.1598 19.043 20.7844 19.043 20.7844L18.6311 18.7128C19.0075 17.7669 19.3835 16.5829 19.4669 15.4805C19.4669 15.4805 20.1175 15.3356 20.9774 15.0511C20.5118 15.9797 20.3984 18.5736 20.3743 20.2392C20.3622 21.1908 20.5176 22.1367 20.8281 23.0362L21.7776 25.7639L23.3181 27L20.0103 26.9997Z" stroke="black" stroke-miterlimit="10" stroke-linecap="round"/>
</svg>
