<svg width="32" height="32" viewBox="0 0 32 32" fill="none" xmlns="http://www.w3.org/2000/svg">
<path d="M29.6969 22.11V16.9642C29.6969 16.4473 29.602 15.9361 29.4124 15.4526L26.4191 8.13948C25.8915 6.85024 24.5697 6 23.0997 6H9.02824C7.55826 6 6.23646 6.85024 5.70893 8.13948L2.71563 15.4526C2.52595 15.9361 2.43111 16.4473 2.43111 16.9642V22.11M29.6969 22.11C29.6969 22.7213 29.1634 23.2214 28.5114 23.2214H3.61658C2.96457 23.2214 2.43111 22.7213 2.43111 22.11M29.6969 22.11V24.8886C29.6969 25.4999 29.1634 26 28.5114 26H26.7332C26.0812 26 25.5477 25.4999 25.5477 24.8886V23.2214M2.43111 22.11V24.8886C2.43111 25.4999 2.96457 26 3.61658 26H5.39478C6.04679 26 6.58025 25.4999 6.58025 24.8886V23.2214M3.61658 13.7744L4.48197 14.0467C5.08656 14.2356 5.72078 14.3301 6.35501 14.3301H25.773C26.4072 14.3301 27.0414 14.2356 27.646 14.0467L28.5114 13.7744M20.8059 20.9986H11.3221M8.35845 19.3315H5.98752C5.00358 19.3315 4.20931 18.5868 4.20931 17.6644C4.20931 17.3587 4.47604 17.1086 4.80205 17.1086H7.17298C8.15692 17.1086 8.95118 17.8533 8.95118 18.7758C8.95118 19.0814 8.68445 19.3315 8.35845 19.3315ZM26.1405 19.3315H23.7695C23.4435 19.3315 23.1768 19.0814 23.1768 18.7758C23.1768 17.8533 23.9711 17.1086 24.955 17.1086H27.3259C27.6519 17.1086 27.9187 17.3587 27.9187 17.6644C27.9187 18.5868 27.1244 19.3315 26.1405 19.3315ZM3.55645 13.2187H1.48188C0.663909 13.2187 1.00005 12.5963 1.00005 11.8294C1.00005 11.3682 1.39718 10.9958 1.88915 10.9958H2.66735C3.15932 10.9958 3.55645 11.3682 3.55645 11.8294V13.2187ZM28.4436 13.2187H30.5182C31.3362 13.2187 31 12.5963 31 11.8294C31 11.3682 30.6029 10.9958 30.1109 10.9958H29.3327C28.8408 10.9958 28.4436 11.3682 28.4436 11.8294V13.2187Z" stroke="black" stroke-miterlimit="10" stroke-linecap="round"/>
</svg>
