<svg width="32" height="32" viewBox="0 0 32 32" fill="none" xmlns="http://www.w3.org/2000/svg">
<path d="M29.4477 14.6168C29.4477 16.6102 28.7878 19.2403 27.4787 20.357C24.7138 19.5743 14.9632 21.2859 12.5753 22.0269C7.13967 18.0923 6.34371 11.0579 9.29716 6.94578C11.6851 5.7873 16.796 3.8878 24.9127 5.88123M15.4031 29.5C17.0788 27.8092 18.6498 25.294 19.54 20.7644M21.2156 28.3102C22.1896 26.9221 23.3103 25.0226 22.7971 20.3052M9.46477 27.8403C10.3026 27.5272 11.6432 27.3393 12.5334 22.0166M27.3006 20.3467C27.3006 20.3467 27.7615 21.8496 27.2588 23.4047M11.0881 26.6923C8.16607 24.7301 0.311149 16.6208 6.25995 6.64319M28.725 11.3294C26.0753 9.15857 17.4873 6.65374 7.73668 13.1767M29.3429 14.2934C25.5306 13.9698 17.4977 14.429 8.35452 16.3285M12.5753 3.00072C13.8321 3.32426 14.9947 3.9296 15.7383 5.12983M17.4034 2.5728C18.2413 3.20944 18.9849 4.13831 19.0791 4.87932M9.27618 6.93559C9.27618 6.93559 8.46974 5.91279 6.82544 6.00672M29.5 15.953C29.5 23.3829 23.4558 29.406 16 29.406C8.54415 29.406 2.5 23.3829 2.5 15.953C2.5 8.52312 8.54415 2.5 16 2.5C23.4558 2.5 29.5 8.52312 29.5 15.953Z" stroke="black" stroke-miterlimit="10" stroke-linecap="round"/>
</svg>
