<svg width="32" height="32" viewBox="0 0 32 32" fill="none" xmlns="http://www.w3.org/2000/svg">
<path d="M14.515 2.5C12.895 5.2 12.22 6.685 13.57 8.44C13.57 8.44 13.84 8.98 14.38 9.25C16.135 10.6 18.16 10.465 20.32 10.33C23.56 10.06 26.935 9.79 29.5 14.92M17.35 29.5C12.085 26.8 11.95 23.695 11.815 20.725C11.815 18.7 11.68 16.675 9.925 14.92C9.925 14.92 9.79 14.785 9.655 14.65C9.52 14.515 8.71 13.975 8.71 13.975C7.09 13.03 5.065 13.165 2.5 14.515M25.99 25.18L6.955 6.145M25.4007 6.19065C22.1309 6.05441 18.7249 6.73561 15.5914 8.37051C9.46052 11.3678 5.50953 17.0899 4.55584 23.4933M29.5 14.785C29.23 11.545 27.88 8.71 25.585 6.415C23.02 3.85 19.645 2.5 16 2.5C15.865 2.5 15.73 2.5 15.595 2.5C12.085 2.635 8.845 3.985 6.415 6.415C3.985 8.845 2.635 12.085 2.5 15.595C2.5 15.73 2.5 15.865 2.5 16C2.5 19.645 3.85 23.02 6.415 25.585C8.98 28.15 12.355 29.5 16 29.5C19.645 29.5 23.02 28.15 25.585 25.585C28.15 23.02 29.5 19.645 29.5 16C29.5 15.595 29.5 15.19 29.5 14.785Z" stroke="black" stroke-miterlimit="10"/>
</svg>
