<svg width="32" height="32" viewBox="0 0 32 32" fill="none" xmlns="http://www.w3.org/2000/svg">
<path d="M1 12.9402C2.145 11.7478 4.66409 9.36297 7.09712 8.35292C8.18383 7.67765 11.7475 6.25339 11.7475 6.25339L10.0569 5.87817C10.0569 5.87817 12.4182 3.20168 13.1746 3.03077C13.953 2.86246 14.528 3.43108 14.9728 3.61452C15.5933 3.81886 16.9782 3.78799 17.6479 3.9547C18.2764 4.09475 18.4108 5.87225 18.4108 5.87225C18.4108 5.87225 19.6137 6.40688 20.2186 6.91383C20.8016 7.41816 22.6234 9.41826 23.246 10.3188C23.8247 11.214 24.9655 12.9591 26.3815 14.1063C27.7975 15.2534 30.3152 17.9235 30.3152 17.9235C30.3152 17.9235 30.9261 18.5617 30.9989 19.0488C31.0358 19.4663 30.1606 20.232 29.5412 20.3758C28.9438 20.5221 24.8538 20.2745 23.7227 19.8789C22.5915 19.4832 19.6851 17.0713 18.8757 16.9532C18.0636 16.8566 14.5555 15.8735 13.57 16.4521C12.5872 17.0093 9.66325 21.3368 8.43148 22.9951C7.30625 24.514 6.29238 26.568 5.53438 28M4.56916 10.1671C3.23883 15.0867 3.38379 23.9299 7.81817 23.615M17.6243 10.7094C17.6243 10.9639 17.8356 11.1701 18.0962 11.1701C18.3568 11.1701 18.5681 10.9639 18.5681 10.7094C18.5681 10.455 18.3568 10.2487 18.0962 10.2487C17.8356 10.2487 17.6243 10.455 17.6243 10.7094Z" stroke="black" stroke-miterlimit="10" stroke-linecap="round"/>
</svg>
