<svg width="32" height="32" viewBox="0 0 32 32" fill="none" xmlns="http://www.w3.org/2000/svg">
<path d="M15.7493 31.5L21.5538 27.679L28.5 28.0967L24.8274 17.6945M21.3568 27.5452L19.2549 21.4615M15.6179 31.4863L10.4462 28.083L3.5 28.5007L7.21139 16.6657M10.7425 28.0245L12.6539 21.0478M26.8309 11.0791C26.8309 16.9218 22.0786 21.6583 16.2163 21.6583C10.3539 21.6583 5.6016 16.9218 5.6016 11.0791C5.6016 5.23644 10.3539 0.5 16.2163 0.5C22.0786 0.5 26.8309 5.23644 26.8309 11.0791ZM13.2938 11.0794C13.2938 11.4316 13.0073 11.7171 12.6539 11.7171C12.3006 11.7171 12.0141 11.4316 12.0141 11.0794C12.0141 10.7272 12.3006 10.4417 12.6539 10.4417C13.0073 10.4417 13.2938 10.7272 13.2938 11.0794ZM16.7998 11.0794C16.7998 11.4316 16.5134 11.7171 16.16 11.7171C15.8066 11.7171 15.5202 11.4316 15.5202 11.0794C15.5202 10.7272 15.8066 10.4417 16.16 10.4417C16.5134 10.4417 16.7998 10.7272 16.7998 11.0794ZM20.3059 11.0794C20.3059 11.4316 20.0195 11.7171 19.6661 11.7171C19.3127 11.7171 19.0263 11.4316 19.0263 11.0794C19.0263 10.7272 19.3127 10.4417 19.6661 10.4417C20.0195 10.4417 20.3059 10.7272 20.3059 11.0794Z" stroke="black" stroke-miterlimit="10" stroke-linecap="round"/>
</svg>
