<svg width="32" height="32" viewBox="0 0 32 32" fill="none" xmlns="http://www.w3.org/2000/svg">
<path d="M11.4514 9.00146L12.044 8.40891C12.044 8.40891 13.6735 4.02177 18.7975 4.4092C18.7975 4.4092 23.6025 4.70928 27.2527 4.09774L18.4519 5.52973C18.4519 5.52973 15.7208 5.87918 13.6317 9.99284L13.0392 10.5854M29 3C29 3 28.4188 3.77487 27.2565 4.09774M10.1258 10.3271L8.40511 12.0478C8.40511 12.0478 4.02177 13.6735 4.4092 18.7975C4.4092 18.7975 4.70928 23.6025 4.09774 27.2527L5.52973 18.4519C5.52973 18.4519 5.87918 15.7208 9.99284 13.6317L11.7135 11.911M3 29C3 29 3.77487 28.4188 4.09774 27.2565M4.32944 26.531L26.531 4.33324M6.85537 6.85537L24.4343 24.4343M19.9978 19.8839H22.972L25.5587 22.4706H22.6377M19.8877 19.9978V22.9682L22.4744 25.5549V22.6339M6.44134 7.45172L5.93616 5.93236L7.45172 6.43755L6.44134 7.45172Z" stroke="black" stroke-miterlimit="10" stroke-linecap="round"/>
</svg>
