<svg width="32" height="32" viewBox="0 0 32 32" fill="none" xmlns="http://www.w3.org/2000/svg">
<path d="M19.4668 14.8782L22.085 14.0286M21.1639 18.1655L23.3767 16.553M23.768 20.8433L25.4005 18.5773M19.4452 7.5255L22.0818 8.35372M18.8932 11.1772L21.6313 11.1832M12.5257 17.1305L9.81222 18.011M13.1282 20.9308L10.2795 20.9081M12.5273 24.7532L9.81222 23.8452M8.05146 10.9602L6.3714 13.2417M10.7646 13.6538L8.47198 15.3449M26.2686 7.23652C31.1085 12.9077 30.4347 21.4287 24.7635 26.2686C19.0923 31.1086 10.5713 30.4347 5.73139 24.7635C0.89145 19.0923 1.56532 10.5713 7.23652 5.73139C12.9077 0.891451 21.4287 1.56532 26.2686 7.23652Z" stroke="black" stroke-miterlimit="10" stroke-linecap="round"/>
</svg>
