<svg width="32" height="32" viewBox="0 0 32 32" fill="none" xmlns="http://www.w3.org/2000/svg">
<path d="M7.82672 6.73321C10.1047 4.5736 13.1045 3.00038 17.0135 3.00038C17.0135 3.00038 31 2.74294 31 15.6911C31 15.6911 30.8078 22.9231 26.641 26.4176C26.641 26.4176 25.9894 26.9992 24.2318 26.9992H4.85975C4.85975 26.9992 3.98326 27.0469 3.00833 26.4033C3.00833 26.4033 0.711624 25.2544 1.03035 20.9208M1.22269 21.9365C1.22269 21.9365 3.36003 22.0223 7.55503 21.5598M1.84588 24.3867C1.84588 24.3867 3.98323 24.4725 8.17823 24.0101M1.40532 18.6279C1.75686 17.1881 3.06457 12.5114 6.09247 8.64982L6.42526 8.79761C6.42526 8.79761 9.94062 10.5139 15.2933 9.50317C15.2933 9.50317 19.1931 8.07297 20.1867 11.3386C20.1867 11.3386 21.4101 14.7568 17.3604 16.3157C17.3604 16.3157 10.5593 18.8805 1.61155 18.6326H1.40532V18.6279Z" stroke="black" stroke-miterlimit="10" stroke-linecap="round"/>
</svg>
