<svg width="32" height="32" viewBox="0 0 32 32" fill="none" xmlns="http://www.w3.org/2000/svg">
<path d="M22.8665 21.8063C21.4439 21.8063 19.5747 23.1416 19.5747 24.5947C19.5747 26.0479 20.7303 27.2283 22.1529 27.2283H23.465M11.9564 23.4292L11.9004 27.0051C11.8787 28.3873 13.021 29.5149 14.4274 29.4999L21.4837 29.4242C22.8619 29.4094 23.968 28.3011 23.9564 26.9466L23.9109 21.6335M9.58908 12.2817C9.58908 11.3766 8.91235 10.5473 7.98185 10.4597C6.90633 10.3546 6 11.1663 6 12.1825V14.6123C6 19.7396 10.5921 20.7908 13.1359 21.7719H23.9031C24.2294 20.7032 26.0239 15.5058 25.9998 8.33464V5.33302M11.71 14.9861C11.71 14.9861 14.5619 16.1306 14.5619 21.6492M25.9511 5.66589C25.2683 15.9905 9.55854 15.9847 8.88182 5.66005C8.84556 5.15783 8.90152 5.91485 8.85765 4.5731C8.8516 3.42852 9.81232 2.5 10.9966 2.5H23.8424C25.0266 2.5 25.9813 3.42852 25.9813 4.56726C25.9813 5.5113 25.9873 5.15199 25.9511 5.66589Z" stroke="black" stroke-miterlimit="10" stroke-linecap="round"/>
</svg>
