<svg width="32" height="32" viewBox="0 0 32 32" fill="none" xmlns="http://www.w3.org/2000/svg">
<path d="M3.8386 7.41371H16.0102M16.0102 7.41371L7.68612 17.5464M16.0102 7.41371L16.0104 3H21.1579C22.5522 3.00524 23.674 4.1375 23.6635 5.52661C23.6582 6.91048 22.5417 8.02702 21.1579 8.03226M16.0102 7.41371L20.1934 20.1935M5.25483 17.0392L3.07423 3.0956M3.07423 3H5.33346M5.93526 25.2258V20.1935M4.25851 25.9066H7.6133M18.5679 14.3916C19.1548 14.2274 19.7784 14.1489 20.4203 14.1731C23.7448 14.2981 26.3393 17.0954 26.2142 20.42C26.0892 23.7445 23.2919 26.339 19.9674 26.214C16.6429 26.089 14.0484 23.2917 14.1734 19.9671C14.2382 18.2459 15.0184 16.7205 16.2168 15.6666M8.87087 20.2565C8.87087 21.8777 7.55663 23.192 5.93544 23.192C4.31424 23.192 3 21.8777 3 20.2565C3 18.6353 4.31424 17.321 5.93544 17.321C7.55663 17.321 8.87087 18.6353 8.87087 20.2565ZM29 20.1935C29 25.0572 25.0573 29 20.1937 29C15.3301 29 11.3874 25.0572 11.3874 20.1935C11.3874 15.3299 15.3301 11.3871 20.1937 11.3871C25.0573 11.3871 29 15.3299 29 20.1935Z" stroke="black" stroke-miterlimit="10" stroke-linecap="round"/>
</svg>
