<svg width="32" height="32" viewBox="0 0 32 32" fill="none" xmlns="http://www.w3.org/2000/svg">
<path d="M23.8453 24.3872L21.994 26.3981M4.38119 14.5648C5.16814 15.4957 6.20141 16.1373 7.3688 16.4205C9.66294 16.977 11.6584 17.9568 13.2913 19.3438C14.2609 20.1677 15.6993 20.1055 16.6089 19.2271C17.5284 18.3392 17.6238 16.891 16.8184 15.888C15.5138 14.2633 14.6015 12.2289 14.1897 9.97868C13.9896 8.88531 13.473 7.88203 12.6951 7.07651M25.7154 29.8936L21.6392 26.0648L18.8992 23.3118C16.6303 24.7687 14.998 23.7861 13.7213 22.4977C13.624 22.4 13.5329 22.2994 13.446 22.1943C11.7879 20.1861 9.45887 18.8818 6.93134 18.2704C5.43052 17.906 4.02189 17.0783 2.93084 15.7877C0.519351 12.9383 0.572737 8.68739 3.05282 5.92981C5.9916 2.66125 11.0405 2.63379 14.0584 5.75886C15.1356 6.8743 15.8024 8.23264 16.0604 9.64658C16.5127 12.1117 17.6683 14.4342 19.6059 16.0308C19.7345 16.1366 19.86 16.2514 19.9794 16.3751C21.2761 17.7178 21.5532 19.6678 20.8249 21.259L27.6641 27.862M7.41878 6.74713L7.37757 9.62757M7.37757 9.62757L7.33451 12.624M7.37757 9.62757L10.3735 9.68929M7.37757 9.62757L4.49517 9.56818M7.33451 12.624L7.30725 14.543L7.30819 14.5439M7.33451 12.624L10.3318 12.6867M7.33451 12.624L4.84182 12.5738M10.2889 15.6834L10.3318 12.6867M10.3318 12.6867L10.3735 9.68929M10.3318 12.6867L13.3278 12.8247M10.3735 9.68929L10.4105 7.19847M10.3735 9.68929L12.2922 9.72902M26.1719 5.56061C28.3662 5.60582 30.1196 7.42151 30.0882 9.61607C30.0568 11.8106 28.2525 13.553 26.0582 13.5078C23.8638 13.4626 22.1104 11.6469 22.1418 9.45235C22.1732 7.25779 23.9775 5.5154 26.1719 5.56061Z" stroke="black" stroke-miterlimit="10" stroke-linecap="round"/>
</svg>
