<svg width="32" height="32" viewBox="0 0 32 32" fill="none" xmlns="http://www.w3.org/2000/svg">
<g clip-path="url(#clip0_8426_8)">
<path d="M24.8682 17.9094C26.7818 16.1233 30.7227 11.7815 31.418 7.63979L1.45203 18.8063M23.9808 10.2042L19.2281 7.34657C19.2281 7.34657 16.7085 9.398 12.3894 14.7306M30.2131 11.0537L6.88672 19.5541M1.41003 18.6759L0.71834 15.6657C0.71834 15.6657 3.1537 13.7356 6.37637 14.596L7.22767 16.6642M3.13973 18.2747L5.64549 22.5151M29.803 18.1381C29.803 18.1381 27.7108 21.7136 23.2419 19.6085L23.2013 19.6176C23.2013 19.6176 22.1743 22.9544 17.7053 20.8494L17.6647 20.8585C17.6647 20.8585 17.0956 24.5729 12.6267 22.4678C12.6267 22.4678 12.15 25.0753 7.68102 22.9703C7.68102 22.9703 6.57033 26.4515 2.10136 24.3465M7.48929 21.0829L5.68258 17.3757" stroke="black" stroke-miterlimit="10" stroke-linecap="round"/>
</g>
<defs>
<clipPath id="clip0_8426_8">
<rect width="32" height="32" fill="white"/>
</clipPath>
</defs>
</svg>
