<svg width="32" height="32" viewBox="0 0 32 32" fill="none" xmlns="http://www.w3.org/2000/svg">
<path d="M10.1345 18.6469C13.9808 22.0249 18.4818 24.2679 22.1764 24.6491M15.4863 12.6111L14.5622 14.2166C14.5093 14.3094 14.5025 14.419 14.5434 14.5168C14.5844 14.6146 14.6696 14.6871 14.7736 14.7158L17.5424 15.4595L19.8543 18.1477C19.9207 18.227 20.0196 18.2692 20.1202 18.2692C20.1594 18.2692 20.2004 18.2624 20.2396 18.2489C20.376 18.2 20.4697 18.0719 20.4697 17.9285L20.4868 15.8053L22.6452 15.7479C22.7901 15.7445 22.9197 15.6518 22.9674 15.5152C23.0135 15.3803 22.9708 15.2302 22.8566 15.1391L20.0776 12.918L19.2678 10.2096C19.2371 10.1084 19.1604 10.0257 19.0615 9.98695C18.9609 9.94816 18.8484 9.95659 18.7563 10.0106L17.1417 10.9499L14.3013 9.37645C14.1632 9.30056 13.991 9.32417 13.8802 9.43548C13.7694 9.54678 13.7489 9.71543 13.8291 9.85035L15.4846 12.6111H15.4863ZM28.7096 17.1494C27.1683 14.1728 24.4183 11.1843 20.9676 8.73391C20.867 8.66308 20.7664 8.59224 20.6641 8.5231C20.5976 8.47588 20.5328 8.42697 20.4663 8.37975C18.2738 6.82483 15.9347 5.6578 13.7455 4.98996C11.8446 4.34741 10.005 4 8.36141 4C5.88246 3.99832 4.00535 4.76903 2.93466 6.22614C1.57585 8.07619 1.70201 10.7846 3.29099 13.849C4.83224 16.8256 7.58227 19.814 11.033 22.2644C15.2118 25.2292 19.9242 27 23.6375 27C26.1181 27 27.9952 26.2293 29.0659 24.7722C30.4247 22.9221 30.2969 20.2137 28.7096 17.1494ZM26.6944 15.0025C25.5725 12.8371 23.5727 10.6632 21.0613 8.88063C20.988 8.82835 20.9147 8.77776 20.8414 8.72716C20.7937 8.69175 20.7459 8.65633 20.6982 8.6226C19.1041 7.49098 17.4009 6.64269 15.8102 6.15699C14.4275 5.68815 13.0891 5.43687 11.8923 5.43687C10.0885 5.43687 8.72286 5.99678 7.94371 7.05756C6.95486 8.40336 7.04692 10.3732 8.20286 12.6043C9.32469 14.7698 11.3246 16.9436 13.8359 18.7262C16.8758 20.8832 20.3044 22.1717 23.0066 22.1717C24.8104 22.1717 26.1761 21.6117 26.9552 20.551C27.9441 19.2052 27.852 17.2354 26.6961 15.0042L26.6944 15.0025Z" stroke="black" stroke-miterlimit="10" stroke-linecap="round"/>
</svg>
