<svg width="32" height="32" viewBox="0 0 32 32" fill="none" xmlns="http://www.w3.org/2000/svg">
<path d="M17.4566 4.64428L17.0143 4.41121L17.0142 4.41139L17.4566 4.64428ZM17.0593 3.16293L17.3226 2.73782L17.3224 2.7377L17.0593 3.16293ZM15.5456 3.54387L15.9553 3.83057L15.9667 3.81424L15.9768 3.79706L15.5456 3.54387ZM12.8315 7.42182L13.2385 7.71226L13.2411 7.70852L12.8315 7.42182ZM12.6647 9.72302L13.1098 9.49517L13.1098 9.49514L12.6647 9.72302ZM5.41553 9.65818L5.60554 9.1957L5.57147 9.1817L5.53572 9.17284L5.41553 9.65818ZM4.72702 9.68749L4.89135 10.1597L4.8921 10.1595L4.72702 9.68749ZM4.01032 10.5516L3.51503 10.4832L3.51503 10.4832L4.01032 10.5516ZM4.78772 11.7512L5.01824 11.3075L4.9952 11.2955L4.97105 11.286L4.78772 11.7512ZM7.48655 13.1533L7.7914 12.757L7.75633 12.73L7.71707 12.7096L7.48655 13.1533ZM9.84266 14.9657L9.5378 15.362L9.53793 15.3622L9.84266 14.9657ZM10.9897 16.9403L11.4847 16.8697L11.4847 16.8696L10.9897 16.9403ZM11.5771 21.062L12.077 21.0503L12.0763 21.0207L12.0721 20.9914L11.5771 21.062ZM11.7144 26.96L11.2146 26.9716L11.2152 26.9975L11.2184 27.0231L11.7144 26.96ZM11.9891 27.6028L12.3746 27.2844L12.3746 27.2844L11.9891 27.6028ZM13.0399 27.9719L13.1548 28.4585L13.1551 28.4584L13.0399 27.9719ZM13.8602 26.8029L13.3618 26.7631L13.3603 26.7827L13.3602 26.8023L13.8602 26.8029ZM14.0043 24.996L14.5028 25.0358L14.5032 25.0301L14.0043 24.996ZM18.8802 15.7532L19.2287 16.1118L19.2523 16.0888L19.2727 16.063L18.8802 15.7532ZM26.9528 11.4656L26.9293 10.9662L26.9283 10.9662L26.9528 11.4656ZM28 10.3596L27.5 10.3551L27.5 10.3554L28 10.3596ZM26.9025 9.23298L26.8716 9.73202L26.8868 9.73297L26.902 9.73298L26.9025 9.23298ZM21.6336 8.90629L21.6025 9.40532L21.6027 9.40533L21.6336 8.90629ZM20.0138 9.51666L19.6626 9.16063L19.6545 9.16895L20.0138 9.51666ZM18.7009 10.8733L19.0408 11.2401L19.0508 11.2309L19.0603 11.221L18.7009 10.8733ZM6.13649 22.2961C6.13746 22.5723 6.3621 22.7953 6.63824 22.7944C6.91438 22.7934 7.13745 22.5688 7.13648 22.2926L6.13649 22.2961ZM21.7945 12.0619L22.187 12.3717L21.7945 12.0619ZM22.5304 11.6827L22.5059 11.1833L22.5304 11.6827ZM9.12721 11.2402L9.40023 10.8213L9.12721 11.2402ZM8.6292 10.9785L8.81921 10.5161L8.6292 10.9785ZM13.9136 13.5612L14.255 13.9265L13.9136 13.5612ZM12.833 13.6556L13.106 13.2367L12.833 13.6556ZM14.0958 12.5182L13.6507 12.7461L14.0958 12.5182ZM14.308 20.5525L14.8069 20.5866L14.308 20.5525ZM14.6088 19.9035L14.2604 19.5449L14.6088 19.9035ZM15.7385 9.05824L16.1502 8.77459L15.7385 9.05824ZM15.6771 8.02516L16.1195 8.25804L15.6771 8.02516ZM17.0004 10.89L16.5886 11.1737L17.0004 10.89ZM18.5035 11.0563L18.8433 11.4231H18.8433L18.5035 11.0563ZM6.83492 27.5C6.55878 27.5 6.33492 27.7239 6.33492 28C6.33492 28.2761 6.55878 28.5 6.83492 28.5V27.5ZM25.0822 28.5C25.3583 28.5 25.5822 28.2761 25.5822 28C25.5822 27.7239 25.3583 27.5 25.0822 27.5V28.5ZM17.4121 10.6064L16.1502 8.77459L15.3267 9.3419L16.5886 11.1737L17.4121 10.6064ZM16.1195 8.25804L17.8991 4.87717L17.0142 4.41139L15.2346 7.79227L16.1195 8.25804ZM17.899 4.87735C18.2951 4.1256 18.0473 3.18655 17.3226 2.73782L16.7961 3.58804C17.0683 3.75654 17.1687 4.11803 17.0143 4.41121L17.899 4.87735ZM17.3224 2.7377C16.5598 2.266 15.5676 2.51911 15.1145 3.29067L15.9768 3.79706C16.149 3.50374 16.5167 3.4152 16.7963 3.58816L17.3224 2.7377ZM15.136 3.25716L12.4218 7.13511L13.2411 7.70852L15.9553 3.83057L15.136 3.25716ZM12.4245 7.13138C11.8354 7.95682 11.7572 9.04773 12.2197 9.95091L13.1098 9.49514C12.8169 8.9232 12.8674 8.23224 13.2385 7.71225L12.4245 7.13138ZM12.2196 9.95088L13.6507 12.7461L14.5408 12.2904L13.1098 9.49517L12.2196 9.95088ZM13.106 13.2367L9.40023 10.8213L8.85419 11.6591L12.56 14.0744L13.106 13.2367ZM8.81921 10.5161L5.60554 9.1957L5.22551 10.1207L8.43918 11.441L8.81921 10.5161ZM5.53572 9.17284C5.20506 9.09096 4.8662 9.10911 4.56195 9.21552L4.8921 10.1595C5.01211 10.1175 5.15269 10.1082 5.29533 10.1435L5.53572 9.17284ZM4.5627 9.21526C4.03244 9.39978 3.60188 9.85482 3.51503 10.4832L4.50561 10.6201C4.53648 10.3967 4.68345 10.2321 4.89135 10.1597L4.5627 9.21526ZM3.51503 10.4832C3.39668 11.3398 3.97441 11.9681 4.60439 12.2163L4.97105 11.286C4.63603 11.1539 4.46824 10.8906 4.50562 10.62L3.51503 10.4832ZM4.5572 12.1948L7.25603 13.597L7.71707 12.7096L5.01824 11.3075L4.5572 12.1948ZM7.18169 13.5496L9.5378 15.362L10.1475 14.5694L7.7914 12.757L7.18169 13.5496ZM9.53793 15.3622C10.056 15.7604 10.4008 16.3523 10.4948 17.0109L11.4847 16.8696C11.3543 15.9558 10.8751 15.1288 10.1474 14.5693L9.53793 15.3622ZM10.4947 17.0108L11.0821 21.1325L12.0721 20.9914L11.4847 16.8697L10.4947 17.0108ZM11.0772 21.0736L11.2146 26.9716L12.2143 26.9484L12.077 21.0503L11.0772 21.0736ZM11.2184 27.0231C11.2616 27.362 11.3983 27.6726 11.6036 27.9212L12.3746 27.2844C12.2905 27.1826 12.2298 27.0493 12.2104 26.8969L11.2184 27.0231ZM11.6036 27.9212C11.9603 28.3531 12.5354 28.6047 13.1548 28.4585L12.925 27.4853C12.7204 27.5336 12.5194 27.4597 12.3746 27.2844L11.6036 27.9212ZM13.1551 28.4584C13.9976 28.2589 14.3595 27.4778 14.3602 26.8035L13.3602 26.8023C13.3598 27.1804 13.1723 27.4267 12.9247 27.4853L13.1551 28.4584ZM14.3587 26.8426L14.5027 25.0358L13.5059 24.9563L13.3618 26.7631L14.3587 26.8426ZM14.5032 25.0301L14.8069 20.5866L13.8092 20.5184L13.5055 24.9619L14.5032 25.0301ZM14.9573 20.2621L19.2287 16.1118L18.5318 15.3946L14.2604 19.5449L14.9573 20.2621ZM19.2727 16.063L22.187 12.3717L21.4021 11.752L18.4878 15.4433L19.2727 16.063ZM22.5549 12.1821L26.9773 11.965L26.9283 10.9662L22.5059 11.1833L22.5549 12.1821ZM26.9763 11.9651C27.8311 11.9248 28.4929 11.2147 28.4999 10.3637L27.5 10.3554C27.4972 10.6903 27.2394 10.9516 26.9293 10.9662L26.9763 11.9651ZM28.4999 10.364C28.5079 9.47365 27.7983 8.7339 26.903 8.73298L26.902 9.73298C27.2268 9.73331 27.5031 10.0048 27.5 10.3551L28.4999 10.364ZM26.9335 8.73394L21.6646 8.40724L21.6027 9.40533L26.8716 9.73202L26.9335 8.73394ZM21.6647 8.40725C20.9208 8.36089 20.1943 8.63619 19.6627 9.16072L20.365 9.87259C20.6966 9.54547 21.146 9.37686 21.6025 9.40532L21.6647 8.40725ZM19.6545 9.16895L18.3416 10.5256L19.0603 11.221L20.3731 9.86436L19.6545 9.16895ZM6.11647 16.6011L6.13649 22.2961L7.13648 22.2926L7.11646 16.5976L6.11647 16.6011ZM8.99424 18.531C8.99424 19.5643 8.08402 20.4614 6.8853 20.4614V21.4614C8.56834 21.4614 9.99424 20.1822 9.99424 18.531H8.99424ZM6.8853 20.4614C5.68659 20.4614 4.77636 19.5643 4.77636 18.531H3.77636C3.77636 20.1822 5.20226 21.4614 6.8853 21.4614V20.4614ZM4.77636 18.531C4.77636 17.4977 5.68659 16.6007 6.8853 16.6007V15.6007C5.20226 15.6007 3.77636 16.8798 3.77636 18.531H4.77636ZM6.8853 16.6007C8.08402 16.6007 8.99424 17.4977 8.99424 18.531H9.99424C9.99424 16.8798 8.56834 15.6007 6.8853 15.6007V16.6007ZM18.3611 10.5066L18.1637 10.6895L18.8433 11.4231L19.0408 11.2401L18.3611 10.5066ZM22.187 12.3717C22.2765 12.2583 22.4106 12.1892 22.5549 12.1821L22.5059 11.1833C22.0731 11.2046 21.6706 11.4119 21.4021 11.752L22.187 12.3717ZM9.40023 10.8213C9.21655 10.7016 9.02202 10.5994 8.81921 10.5161L8.43918 11.441C8.58404 11.5006 8.72299 11.5736 8.85419 11.6591L9.40023 10.8213ZM13.5721 13.196C13.4446 13.3152 13.2522 13.332 13.106 13.2367L12.56 14.0744C13.0917 14.421 13.7914 14.36 14.255 13.9265L13.5721 13.196ZM13.6507 12.7461C13.7278 12.8968 13.6958 13.0804 13.5721 13.196L14.255 13.9265C14.7048 13.506 14.8214 12.8384 14.5408 12.2904L13.6507 12.7461ZM14.8069 20.5866C14.8153 20.4636 14.8688 20.348 14.9573 20.2621L14.2604 19.5449C13.9951 19.8027 13.8344 20.1494 13.8092 20.5184L14.8069 20.5866ZM16.1502 8.77459C16.0448 8.6215 16.0329 8.42254 16.1195 8.25804L15.2346 7.79227C14.9749 8.28577 15.0103 8.88264 15.3267 9.3419L16.1502 8.77459ZM16.5886 11.1737C17.1072 11.9264 18.1728 12.0443 18.8433 11.4231L18.1637 10.6895C17.9402 10.8966 17.585 10.8573 17.4121 10.6064L16.5886 11.1737ZM6.83492 28.5H25.0822V27.5H6.83492V28.5Z" fill="black"/>
</svg>
