<svg width="32" height="32" viewBox="0 0 32 32" fill="none" xmlns="http://www.w3.org/2000/svg">
<path d="M14.4903 17.7544C11.9258 15.6487 10.7161 15.2794 10.7161 15.2794C6.84516 13.9987 9.74839 11.0152 9.74839 11.0152L14.5774 6.95721C16.121 5.77724 17.0306 5.76286 17.7323 5.7005C19.0629 5.58058 19.4258 6.07943 19.4258 6.07943C19.4258 6.07943 20.3403 6.79893 20.6935 8.27629C20.9161 9.19724 20.9258 11.6675 21.7242 12.411C21.7242 12.411 23.1371 12.8331 26.8242 13.9075M18.0952 10.0942L13.6581 13.0537L17.8532 16.3298C17.8532 16.3298 17.771 17.4091 15.6371 25.405M11.9694 22.5654C11.9694 25.5681 9.51613 28 6.4871 28C3.45806 28 1 25.5681 1 22.5654C1 19.5627 3.45323 17.1309 6.48226 17.1309C9.51129 17.1309 11.9645 19.5627 11.9645 22.5654H11.9694ZM31 22.5654C31 25.5681 28.5468 28 25.5177 28C22.4887 28 20.0355 25.5681 20.0355 22.5654C20.0355 19.5627 22.4887 17.1309 25.5177 17.1309C28.5468 17.1309 31 19.5627 31 22.5654ZM27.429 5.43668C27.429 6.78243 26.3285 7.87337 24.971 7.87337C23.6134 7.87337 22.5129 6.78243 22.5129 5.43668C22.5129 4.09094 23.6134 3 24.971 3C26.3285 3 27.429 4.09094 27.429 5.43668Z" stroke="black" stroke-miterlimit="10" stroke-linecap="round"/>
</svg>
