<svg width="32" height="32" viewBox="0 0 32 32" fill="none" xmlns="http://www.w3.org/2000/svg">
<path d="M3.46912 19.3832C5.78407 23.0944 8.90216 26.2146 12.6108 28.5312M10.3145 16.2926C8.6216 18.9529 8.18927 21.5542 9.44781 22.7956C10.7163 24.0469 13.3425 23.5618 16.0009 21.7991M19.3653 3.47481C23.0739 5.79134 26.192 8.91156 28.5069 12.6227M16.6907 10.2926C19.1823 8.78014 21.5755 8.42149 22.7682 9.59803C23.9314 10.7454 23.6502 13.0544 22.2644 15.498M12.6105 19.3788L19.0089 13.1022M5.14572 28.6729C7.34256 29.1221 11.878 29.5239 17.2165 26.8765C21.3976 24.7963 24.7992 21.3924 26.8779 17.2085C29.5236 11.8899 29.122 7.35145 28.6732 5.12947C28.4842 4.20759 27.7755 3.49845 26.8543 3.30935C24.6338 2.88386 20.0984 2.48202 14.7835 5.12947C10.6024 7.20962 7.20083 10.6135 5.1221 14.7974C2.47644 20.116 2.87801 24.6545 3.32683 26.8765C3.51581 27.7747 4.22447 28.4838 5.14572 28.6729Z" stroke="black" stroke-miterlimit="10" stroke-linecap="round"/>
</svg>
