<svg width="32" height="32" viewBox="0 0 32 32" fill="none" xmlns="http://www.w3.org/2000/svg">
<path d="M7.67361 9.11042L6.00625 8.3346M9.06389 6.53546L7.58125 5.45502M6.88125 11.8853L5 11.3332M8.44167 5.84531C9.86597 3.89862 11.8833 3.81771 11.8833 3.81771C11.8833 3.81771 12.7681 1.45693 15.9278 1V3.90338L18.7326 4.37458L19.3743 5.48834C19.3743 5.48834 24.2937 9.05807 25.3632 10.4574C25.3632 10.4574 26.2528 13.7796 23.6667 13.3417C23.6667 13.3417 15.7674 10.762 15.8792 13.1228C15.8792 13.1228 22.7771 17.3113 22.5097 23.8653H10.4931C10.4931 23.8653 10.6243 20.5764 8.47083 19.2437C5.72431 17.5397 5.38889 15.4503 5.83611 11.8234M23.5549 27.0019C24.984 27.7872 26 31 26 31H6.82292C6.82292 31 7.83889 27.7872 9.26806 27.0019H23.5597H23.5549Z" stroke="black" stroke-miterlimit="10" stroke-linecap="round"/>
</svg>
