<svg width="32" height="32" viewBox="0 0 32 32" fill="none" xmlns="http://www.w3.org/2000/svg">
<path d="M19.0909 12.5984L29.4922 2M17.6191 14.0924L20.3568 11.3042M10.5492 21.2929L15.9019 15.8413M8.28246 25.4653L4.11705 29.7077C3.73436 30.0974 3.11127 30.0974 2.72858 29.7077L2.28702 29.258C1.90433 28.8682 1.90433 28.2336 2.28702 27.8438L5.00999 25.0706M21.4459 21.2929L2.5078 2M25.5476 23.6015L29.713 27.8438C30.0957 28.2336 30.0957 28.8682 29.713 29.258L29.2714 29.7077C28.8887 30.0974 28.2656 30.0974 27.883 29.7077L25.0962 26.8695M10.5541 21.2929C12.5656 23.3417 12.6539 25.5653 11.1624 28.0987L3.87174 20.6733C6.3543 19.1543 8.54249 19.2442 10.5541 21.2929ZM21.4509 21.2929C23.4624 19.2442 25.6457 19.1543 28.1332 20.6733L20.8425 28.0987C19.351 25.5703 19.4344 23.3417 21.4509 21.2929Z" stroke="black" stroke-miterlimit="10" stroke-linecap="round"/>
</svg>
