<svg width="32" height="32" viewBox="0 0 32 32" fill="none" xmlns="http://www.w3.org/2000/svg">
<path d="M14.6813 18.2364C13.2229 19.9361 11.5662 21.8992 9.62081 24.2589C9.49618 24.4106 7.89186 26.0517 6.70004 23.3C6.70004 23.3 6.08218 23.8619 5.19996 24.5428C6.9298 28.2646 10.1713 27.0156 11.2606 25.6117C13.0974 23.386 14.6365 21.4796 15.9733 19.7972M17.2672 18.1597C21.1562 13.2083 23.2923 10.2365 26.8399 6.09467C27.0816 5.81213 27.0465 5.3881 26.7596 5.15169C26.4726 4.91528 26.0494 4.9614 25.8184 5.25237C22.4904 9.44259 20.0101 12.0853 16.0239 16.6804M17.7613 9.61291C17.7613 10.5928 16.9669 11.3871 15.9871 11.3871C15.0072 11.3871 14.2129 10.5928 14.2129 9.61291C14.2129 8.63305 15.0072 7.83871 15.9871 7.83871C16.9669 7.83871 17.7613 8.63305 17.7613 9.61291ZM5.24076 5.15124C5.52774 4.91483 5.95088 4.96096 6.18197 5.25193C10.9869 11.3019 14.0253 14.1256 22.3795 24.2589C22.5042 24.4106 24.1085 26.0517 25.3003 23.3C25.3003 23.3 26.0885 23.8983 26.8119 24.5175C25.0852 28.2704 21.8313 27.0187 20.7397 25.6117C12.3801 15.4828 10.1863 11.9633 5.16048 6.09467C4.91875 5.81213 4.95379 5.3881 5.24076 5.15169V5.15124Z" stroke="black" stroke-linecap="round" stroke-linejoin="round"/>
</svg>
