<svg width="32" height="32" viewBox="0 0 32 32" fill="none" xmlns="http://www.w3.org/2000/svg">
<path d="M18.0842 12.9381L21.6272 15.1579C21.8426 15.3373 22.1066 15.4248 22.3683 15.4248C22.6658 15.4248 22.9622 15.3109 23.1869 15.0877L26.6605 11.6364C27.1132 11.1877 27.1132 10.4583 26.6605 10.0096C26.2089 9.55982 25.4748 9.55982 25.0232 10.0096L22.2857 12.36L18.1224 9.25496M11.1624 15.8424L8.37778 22.5644L5.20292 27.1996C4.84166 27.7242 4.97597 28.4397 5.5028 28.7987C5.70311 28.9356 5.93121 29 6.15584 29C6.5252 29 6.88761 28.8251 7.11223 28.4996L14.4936 19.4513M21.5577 5.30088C21.5577 6.57163 20.521 7.60177 19.242 7.60177C17.9631 7.60177 16.9263 6.57163 16.9263 5.30088C16.9263 4.03014 17.9631 3 19.242 3C20.521 3 21.5577 4.03014 21.5577 5.30088ZM21.5091 20.5166C21.3864 20.0944 21.1363 19.732 20.8144 19.4467C20.7241 19.3673 20.5747 19.2523 20.4798 19.1913L15.6526 16.4245L18.4906 12.3554C18.9167 11.6881 18.9966 10.8518 18.7036 10.1178C18.4107 9.38381 17.7762 8.82814 17.0062 8.63257L9.9189 6.83212C9.52291 6.73089 9.1026 6.84593 8.81314 7.13354L5.33954 10.5849C4.88682 11.0335 4.88682 11.7629 5.33954 12.2116C5.79111 12.6614 6.5252 12.6614 6.97676 12.2116L9.98374 9.22389L13.6241 10.1488L11.2007 15.7469C10.9482 16.3313 10.9506 17.0009 11.2088 17.583C11.467 18.1651 11.9614 18.6196 12.5669 18.8289L18.0842 21.2932L15.6746 25.6361C15.2752 26.1319 15.3562 26.8567 15.8553 27.2536C16.0695 27.4239 16.3242 27.5056 16.5778 27.5056C16.917 27.5056 17.254 27.3583 17.4821 27.0742L21.0911 22.592C21.5601 22.0099 21.7152 21.2345 21.508 20.5178L21.5091 20.5166Z" stroke="black" stroke-miterlimit="10" stroke-linecap="round"/>
</svg>
