<svg width="32" height="32" viewBox="0 0 32 32" fill="none" xmlns="http://www.w3.org/2000/svg">
<path d="M14.5013 18.5414C12.844 20.4728 10.9615 22.7037 8.75085 25.3851C8.60921 25.5575 6.78615 27.4224 5.43183 24.2954C5.43183 24.2954 4.72973 24.934 3.72722 25.7077C5.69292 29.9371 9.37634 28.5177 10.6142 26.9224C12.7014 24.3932 14.4504 22.2269 15.9695 20.3151M17.4398 18.4542C21.8591 12.8276 24.2864 9.45061 28.3176 4.74395C28.5923 4.42288 28.5525 3.94102 28.2264 3.67237C27.9003 3.40372 27.4195 3.45614 27.1569 3.78679C23.3752 8.54839 20.5566 11.5514 16.027 16.7732M18.0012 8.74194C18.0012 9.85542 17.0986 10.7581 15.9851 10.7581C14.8717 10.7581 13.969 9.85542 13.969 8.74194C13.969 7.62846 14.8717 6.72581 15.9851 6.72581C17.0986 6.72581 18.0012 7.62846 18.0012 8.74194ZM3.77359 3.67187C4.09969 3.40322 4.58053 3.45564 4.84313 3.78628C10.3032 10.6613 13.7558 13.87 23.2492 25.3851C23.3908 25.5575 25.2138 27.4224 26.5682 24.2954C26.5682 24.2954 27.4638 24.9754 28.2859 25.679C26.3237 29.9436 22.6262 28.5212 21.3858 26.9224C11.8864 15.4123 9.39348 11.4128 3.68236 4.74395C3.40767 4.42288 3.44748 3.94052 3.77359 3.67187Z" stroke="black" stroke-miterlimit="10"/>
</svg>
