<svg width="32" height="32" viewBox="0 0 32 32" fill="none" xmlns="http://www.w3.org/2000/svg">
<path d="M19.0251 17.2294L28.2736 5.81505C28.6618 5.33294 28.5952 4.62925 28.1233 4.22861C27.6318 3.81128 26.8924 3.88354 26.4909 4.38814L17.226 15.9751M12.6022 21.0554L15.0715 23.0332M11.5041 22.3967L16.1493 16.5423C16.7164 15.8283 17.7552 15.7098 18.4686 16.2777C19.1904 16.8524 19.3006 17.9073 18.7131 18.6187L13.5725 24.8753C11.9305 26.9749 10.311 27.7889 8.17684 27.2666C7.15335 27.0935 6.2852 26.463 5.66625 25.5121C4.54683 23.8317 4.67068 21.717 4.84591 21.1422C5.05429 20.3716 5.7422 19.7626 6.48895 19.7278C6.64721 19.7143 6.76093 19.7335 6.87465 19.7527C7.32954 19.8297 7.72 20.057 7.97023 20.4217C8.22047 20.7864 8.29919 21.2429 8.26418 21.6803C8.21593 22.196 8.26627 23.0507 8.55441 23.4218C8.77999 23.7018 9.19382 23.8669 9.55487 23.8071C10.1532 23.8057 10.7006 23.2278 11.5041 22.3967Z" stroke="black"/>
<circle cx="10.3791" cy="13.9078" r="2.5" transform="rotate(-3.71933 10.3791 13.9078)" stroke="black"/>
</svg>
