<svg width="32" height="32" viewBox="0 0 32 32" fill="none" xmlns="http://www.w3.org/2000/svg">
<path d="M22.8635 5.4417L24.9998 7.19814M2.19483 23.781L8.97758 29.5669M28.2272 1.22781L30.3336 2.96255C30.6824 3.24978 30.4426 3.80099 29.9865 3.76018L28.2892 3.60881C28.1033 3.59228 27.9212 3.66667 27.8037 3.80719L10.3662 24.6592L6.9481 21.8695L26.8664 1.3022C27.2269 0.930249 27.8256 0.897186 28.2272 1.22781ZM6.65276 21.5549L10.9035 25.1468C11.006 25.2336 11.0562 25.3643 11.0364 25.495C10.9542 26.0369 10.5878 27.5578 8.97705 29.5669C8.97705 29.5669 6.21428 32.4624 2.39831 30.022C1.83326 29.6609 1.5 29.0441 1.5 28.389V24.9619C1.5 24.3554 1.84074 23.797 2.38977 23.5035L6.13631 21.5012C6.30294 21.4123 6.50909 21.4335 6.65276 21.5544V21.5549ZM21.7954 27.5005C21.7954 29.2979 20.289 30.755 18.4307 30.755C16.5725 30.755 15.066 29.2979 15.066 27.5005C15.066 25.703 16.5725 24.2459 18.4307 24.2459C20.289 24.2459 21.7954 25.703 21.7954 27.5005Z" stroke="black" stroke-miterlimit="10" stroke-linecap="round"/>
</svg>
