<svg width="32" height="32" viewBox="0 0 32 32" fill="none" xmlns="http://www.w3.org/2000/svg">
<path d="M11.9239 24.7541L16.3541 31L20.1781 24.7192M23.721 7.81306C22.9353 7.25494 21.8282 7.3247 21.1496 7.98747C20.4354 8.68512 20.3639 9.76647 20.9711 10.499M18.4714 12.906C17.6857 12.3479 16.5786 12.4176 15.9 13.0804C15.1857 13.7781 15.1143 14.8594 15.7214 15.5919M13.2572 18.0336C12.4715 17.4755 11.3644 17.5452 10.6858 18.208C9.97153 18.9057 9.9001 19.987 10.5072 20.7195M11.9822 6.56758C11.1965 6.00946 10.0893 6.07922 9.41076 6.74199C8.69648 7.43964 8.62506 8.52099 9.23219 9.25352M11.4396 12.7606C10.6539 12.2025 9.54677 12.2723 8.86821 12.935C8.15393 13.6327 8.0825 14.714 8.68964 15.4466M14.9395 9.34235C14.368 8.57494 14.4395 7.49359 15.118 6.83082C15.8323 6.13317 16.9394 6.06341 17.6894 6.65641M16.2544 1.00258C23.1565 1.13979 28.6378 6.71602 28.4974 13.4574C28.3569 20.1988 22.6477 25.5526 15.7456 25.4154C8.84353 25.2782 3.36216 19.702 3.50264 12.9605C3.64312 6.21913 9.35227 0.865367 16.2544 1.00258Z" stroke="black" stroke-miterlimit="10" stroke-linecap="round"/>
</svg>
