<svg width="32" height="32" viewBox="0 0 32 32" fill="none" xmlns="http://www.w3.org/2000/svg">
<path d="M18.8196 17.8386L29.7028 4.2171C30.1597 3.64177 30.0813 2.802 29.526 2.32389C28.9476 1.82586 28.0775 1.91209 27.6051 2.51427L16.7025 16.3418M11.2615 22.4045L14.1672 24.7648M9.96923 24.0051L15.4356 17.0187C16.1029 16.1666 17.3254 16.0252 18.1648 16.7029C19.0142 17.3887 19.1438 18.6477 18.4525 19.4967L12.4032 26.963C10.471 29.4687 8.56535 30.4401 6.05392 29.8168C4.84953 29.6102 3.82794 28.8578 3.09958 27.723C1.7823 25.7177 1.92804 23.1941 2.13425 22.5081C2.37945 21.5884 3.18896 20.8618 4.0677 20.8202C4.25393 20.804 4.38775 20.827 4.52157 20.85C5.05686 20.9418 5.51634 21.213 5.8108 21.6482C6.10527 22.0835 6.1979 22.6283 6.15671 23.1502C6.09992 23.7656 6.15917 24.7856 6.49824 25.2285C6.76369 25.5626 7.25066 25.7597 7.67553 25.6883C8.37959 25.6866 9.02372 24.997 9.96923 24.0051ZM11.5811 13.6812C11.6865 15.3254 10.4576 16.745 8.83625 16.8519C7.21492 16.9587 5.81512 15.7125 5.70973 14.0682C5.60433 12.424 6.83324 11.0045 8.45458 10.8976C10.0759 10.7907 11.4757 12.037 11.5811 13.6812Z" stroke="black" stroke-miterlimit="10" stroke-linecap="round"/>
</svg>
