<svg width="33" height="32" viewBox="0 0 33 32" fill="none" xmlns="http://www.w3.org/2000/svg">
<path d="M4.38135 11.425L5.00135 10.5L7.00632 6.495C7.31632 5.875 7.92631 5.455 8.6213 5.395C10.2963 5.25 13.5262 5 16.0012 5C18.4762 5 21.7062 5.25 23.3811 5.395C24.0761 5.455 24.6861 5.875 24.9961 6.495L27.0011 10.5L27.6211 11.425M2.00138 25.5V26C2.00138 26.55 2.45137 27 3.00137 27H6.00133C6.37133 27 6.69133 26.8 6.86632 26.5M30.0011 25.5V26C30.0011 26.55 29.5511 27 29.0011 27H26.0011C25.6311 27 25.3111 26.8 25.1361 26.5M6.45133 11.93C6.62133 11.975 6.79632 12 6.97132 12H25.0311C25.2061 12 25.3811 11.975 25.5511 11.93M28.7411 9.5H30.0861C30.5061 9.5 30.891 9.715 31.076 10.055L31.386 10.605C31.656 11.1 31.436 11.7 30.8861 11.945L30.4911 12.125L28.6411 12.96L29.6661 14.495C29.7011 14.545 29.7311 14.6 29.7611 14.65C29.9211 14.945 30.0011 15.27 30.0011 15.605V22C30.0011 22.63 29.7061 23.22 29.2011 23.6L28.5361 24.1C28.1861 24.36 27.7661 24.5 27.3361 24.5H4.66635C4.23635 24.5 3.81636 24.36 3.46636 24.1L2.80137 23.6C2.29638 23.22 2.00138 22.63 2.00138 22V15.605C2.00138 15.27 2.08138 14.945 2.24138 14.65C2.27138 14.6 2.30138 14.545 2.33638 14.495L3.36136 12.96L1.51139 12.125L1.11639 11.945C0.566396 11.7 0.346399 11.1 0.616396 10.605L0.926392 10.055C1.11139 9.715 1.49639 9.5 1.91638 9.5H3.26137M4.00136 15.82L4.84635 16.365C4.98135 16.455 5.14134 16.51 5.30634 16.525L9.0413 16.925C9.3813 16.965 9.59129 17.305 9.46629 17.61L8.9413 18.87C8.7863 19.25 8.40131 19.5 7.98131 19.5H4.02136M27.9811 19.5H24.0211C23.6011 19.5 23.2161 19.25 23.0611 18.87L22.5361 17.61C22.4111 17.305 22.6211 16.965 22.9611 16.925L26.6961 16.525C26.8611 16.51 27.0211 16.455 27.1561 16.365L28.0011 15.82M11.5013 17H20.5012M11.0013 22.5V21C11.0013 20.7236 11.2248 20.5 11.5013 20.5H20.5012C20.7776 20.5 21.0012 20.7236 21.0012 21V22.5" stroke="black" stroke-miterlimit="10" stroke-linecap="round"/>
</svg>
