<svg width="32" height="32" viewBox="0 0 32 32" fill="none" xmlns="http://www.w3.org/2000/svg">
<path d="M12.2985 24.2335C12.4965 24.041 12.501 23.7245 12.3085 23.5265C12.116 23.3285 11.7995 23.324 11.6015 23.5165L12.2985 24.2335ZM8.90146 26.1415C8.70347 26.334 8.69901 26.6505 8.8915 26.8485C9.084 27.0465 9.40055 27.051 9.59854 26.8585L8.90146 26.1415ZM20.3985 23.5165C20.2005 23.324 19.884 23.3285 19.6915 23.5265C19.499 23.7245 19.5035 24.041 19.7015 24.2335L20.3985 23.5165ZM22.4015 26.8585C22.5995 27.051 22.916 27.0465 23.1085 26.8485C23.301 26.6505 23.2965 26.334 23.0985 26.1415L22.4015 26.8585ZM8.8 9.875V9.375C8.52386 9.375 8.3 9.59886 8.3 9.875H8.8ZM23.2 9.875H23.7C23.7 9.59886 23.4761 9.375 23.2 9.375V9.875ZM23.2 16V16.5C23.4761 16.5 23.7 16.2761 23.7 16H23.2ZM8.8 16H8.3C8.3 16.2761 8.52386 16.5 8.8 16.5V16ZM12.4 7.625C12.1239 7.625 11.9 7.84886 11.9 8.125C11.9 8.40114 12.1239 8.625 12.4 8.625V7.625ZM19.6 8.625C19.8761 8.625 20.1 8.40114 20.1 8.125C20.1 7.84886 19.8761 7.625 19.6 7.625V8.625ZM10.15 25.125C9.87386 25.125 9.65 25.3489 9.65 25.625C9.65 25.9011 9.87386 26.125 10.15 26.125V25.125ZM21.85 26.125C22.1261 26.125 22.35 25.9011 22.35 25.625C22.35 25.3489 22.1261 25.125 21.85 25.125V26.125ZM21.4 24.375C23.6518 24.375 25.5 22.5981 25.5 20.375H24.5C24.5 22.0194 23.1262 23.375 21.4 23.375V24.375ZM25.5 20.375V10.3125H24.5V20.375H25.5ZM25.5 10.3125C25.5 9.22614 25.3871 7.81574 24.0176 6.72588C22.6969 5.67482 20.2987 5 16 5V6C20.2513 6 22.3531 6.67924 23.3949 7.50834C24.3879 8.29864 24.5 9.29449 24.5 10.3125H25.5ZM16 5C11.7013 5 9.3031 5.67482 7.9824 6.72588C6.61295 7.81574 6.5 9.22614 6.5 10.3125H7.5C7.5 9.29449 7.61205 8.29864 8.6051 7.50834C9.6469 6.67924 11.7487 6 16 6V5ZM6.5 10.3125V20.375H7.5V10.3125H6.5ZM6.5 20.375C6.5 22.5981 8.34823 24.375 10.6 24.375V23.375C8.87377 23.375 7.5 22.0194 7.5 20.375H6.5ZM10.6 24.375H21.4V23.375H10.6V24.375ZM11.45 19.0625C11.45 19.498 11.0828 19.875 10.6 19.875V20.875C11.6084 20.875 12.45 20.0767 12.45 19.0625H11.45ZM10.6 19.875C10.1172 19.875 9.75 19.498 9.75 19.0625H8.75C8.75 20.0767 9.59164 20.875 10.6 20.875V19.875ZM9.75 19.0625C9.75 18.627 10.1172 18.25 10.6 18.25V17.25C9.59164 17.25 8.75 18.0483 8.75 19.0625H9.75ZM10.6 18.25C11.0828 18.25 11.45 18.627 11.45 19.0625H12.45C12.45 18.0483 11.6084 17.25 10.6 17.25V18.25ZM22.25 19.0625C22.25 19.498 21.8828 19.875 21.4 19.875V20.875C22.4084 20.875 23.25 20.0767 23.25 19.0625H22.25ZM21.4 19.875C20.9172 19.875 20.55 19.498 20.55 19.0625H19.55C19.55 20.0767 20.3916 20.875 21.4 20.875V19.875ZM20.55 19.0625C20.55 18.627 20.9172 18.25 21.4 18.25V17.25C20.3916 17.25 19.55 18.0483 19.55 19.0625H20.55ZM21.4 18.25C21.8828 18.25 22.25 18.627 22.25 19.0625H23.25C23.25 18.0483 22.4084 17.25 21.4 17.25V18.25ZM11.6015 23.5165L8.90146 26.1415L9.59854 26.8585L12.2985 24.2335L11.6015 23.5165ZM19.7015 24.2335L22.4015 26.8585L23.0985 26.1415L20.3985 23.5165L19.7015 24.2335ZM8.8 10.375H23.2V9.375H8.8V10.375ZM22.7 9.875V16H23.7V9.875H22.7ZM23.2 15.5H8.8V16.5H23.2V15.5ZM9.3 16V9.875H8.3V16H9.3ZM12.4 8.625H19.6V7.625H12.4V8.625ZM10.15 26.125H21.85V25.125H10.15V26.125Z" fill="black"/>
</svg>
